<svg xmlns="http://www.w3.org/2000/svg" viewBox="0 0 500 500"><g id="freepik--background-complete--inject-135"><path d="M446.83,63.43c-7.18,0-128.17.8-135.77.56-.55,0-.84-.82-.3-1.09C315.56,60.53,321,61,326,59.32c2.94-1,4.74-2.9,6.77-5.1A14.1,14.1,0,0,1,339,50.11a13.31,13.31,0,0,1,6.86-.21c2.45.58,4.58,2,6.93,2.88,5.81,2.19,11.46.1,15.6-4.2,3.43-3.54,6.79-6.89,11.44-8.79A15.17,15.17,0,0,1,392,39.62c4.44,2,7.49,6.05,11.66,8.48,4.94,2.89,10.85,2.21,16.3,3.08s9.65,5.47,14.44,8.11a10.14,10.14,0,0,0,5.21,1.62c1.07,0,2.12-.32,3.18-.45,1.65-.2,3.21-.16,4.32,1.22C447.36,62,447.31,63.43,446.83,63.43Z" style="fill:#ebebeb"></path><path d="M445.59,193.62c-5.25,0-93.58.58-99.13.4-.4,0-.61-.6-.21-.79,3.5-1.74,7.47-1.39,11.1-2.61,2.14-.72,3.46-2.12,4.94-3.73a10.2,10.2,0,0,1,4.6-3,9.64,9.64,0,0,1,5-.15c1.79.42,3.35,1.45,5.06,2.1,4.24,1.6,8.37.08,11.39-3.07,2.5-2.58,5-5,8.36-6.42a11.08,11.08,0,0,1,8.85-.12c3.24,1.47,5.46,4.42,8.5,6.19,3.61,2.11,7.92,1.61,11.91,2.25s7,4,10.54,5.92a7.3,7.3,0,0,0,3.81,1.18c.78,0,1.54-.23,2.31-.32,1.21-.15,2.35-.12,3.16.89C446,192.58,445.94,193.62,445.59,193.62Z" style="fill:#ebebeb"></path><path d="M395.09,148.2c-5.24,0-93.57.58-99.12.4-.4,0-.62-.6-.22-.79,3.5-1.74,7.47-1.39,11.11-2.61,2.14-.73,3.45-2.12,4.93-3.73a10.25,10.25,0,0,1,4.6-3,9.75,9.75,0,0,1,5-.16c1.8.43,3.35,1.46,5.06,2.1,4.25,1.61,8.37.08,11.4-3.06,2.5-2.58,4.95-5,8.35-6.42a11.08,11.08,0,0,1,8.85-.12c3.24,1.47,5.46,4.42,8.5,6.19,3.61,2.11,7.93,1.61,11.91,2.25s7,4,10.54,5.92a7.42,7.42,0,0,0,3.81,1.18c.78,0,1.55-.23,2.32-.32a3.17,3.17,0,0,1,3.15.88C395.48,147.16,395.44,148.2,395.09,148.2Z" style="fill:#ebebeb"></path><path d="M310,103.51c-.11.3-139.22,0-137.46,0,.8,0-1.22-1.19-.43-1.58,4.52-2.25,9.48-2.31,14.41-2.76a22.41,22.41,0,0,0,8.42-2c2.62-1.37,4.26-3.75,6.12-6a26.16,26.16,0,0,1,23.75-9c9.89,1.55,17.69,9.09,27.6,10.47,6,.84,11.58-1.47,17.4-2.28a21.32,21.32,0,0,1,13.06,2.39c3.14,1.56,6,2.87,9.59,3.11,2.72.19,5.46-.12,8.19-.15a18.33,18.33,0,0,1,12,4.82C313.13,100.91,314.53,103.51,310,103.51Z" style="fill:#ebebeb"></path><rect x="360.07" y="230.03" width="44.96" height="235.7" transform="translate(765.1 695.75) rotate(180)" style="fill:#dbdbdb"></rect><rect x="389.31" y="237.68" width="8.74" height="9" transform="translate(787.37 484.37) rotate(180)" style="fill:#ebebeb"></rect><rect x="378.13" y="237.68" width="8.74" height="9" transform="translate(765 484.37) rotate(180)" style="fill:#ebebeb"></rect><rect x="389.31" y="252.96" width="8.74" height="9" transform="translate(787.37 514.93) rotate(180)" style="fill:#ebebeb"></rect><rect x="378.13" y="252.96" width="8.74" height="9" transform="translate(765 514.93) rotate(180)" style="fill:#ebebeb"></rect><rect x="389.31" y="268.24" width="8.74" height="9" transform="translate(787.37 545.48) rotate(180)" style="fill:#ebebeb"></rect><rect x="378.13" y="268.24" width="8.74" height="9" transform="translate(765 545.48) rotate(180)" style="fill:#ebebeb"></rect><rect x="389.31" y="283.52" width="8.74" height="9" transform="translate(787.37 576.04) rotate(180)" style="fill:#ebebeb"></rect><rect x="378.13" y="283.52" width="8.74" height="9" transform="translate(765 576.04) rotate(180)" style="fill:#ebebeb"></rect><rect x="389.31" y="298.8" width="8.74" height="9" transform="translate(787.37 606.6) rotate(180)" style="fill:#ebebeb"></rect><rect x="378.13" y="298.8" width="8.74" height="9" transform="translate(765 606.6) rotate(180)" style="fill:#ebebeb"></rect><rect x="389.31" y="314.08" width="8.74" height="9" transform="translate(787.37 637.16) rotate(180)" style="fill:#ebebeb"></rect><rect x="378.13" y="314.08" width="8.74" height="9" transform="translate(765 637.16) rotate(180)" style="fill:#ebebeb"></rect><rect x="389.31" y="329.36" width="8.74" height="9" transform="translate(787.37 667.72) rotate(180)" style="fill:#ebebeb"></rect><rect x="378.13" y="329.36" width="8.74" height="9" transform="translate(765 667.72) rotate(180)" style="fill:#ebebeb"></rect><rect x="389.31" y="344.64" width="8.74" height="9" transform="translate(787.37 698.28) rotate(180)" style="fill:#ebebeb"></rect><rect x="378.13" y="344.64" width="8.74" height="9" transform="translate(765 698.28) rotate(180)" style="fill:#ebebeb"></rect><rect x="389.31" y="359.92" width="8.74" height="9" transform="translate(787.37 728.84) rotate(180)" style="fill:#ebebeb"></rect><rect x="378.13" y="359.92" width="8.74" height="9" transform="translate(765 728.84) rotate(180)" style="fill:#ebebeb"></rect><rect x="389.31" y="375.2" width="8.74" height="9" transform="translate(787.37 759.4) rotate(180)" style="fill:#ebebeb"></rect><rect x="378.13" y="375.2" width="8.74" height="9" transform="translate(765 759.4) rotate(180)" style="fill:#ebebeb"></rect><rect x="389.31" y="390.48" width="8.74" height="9" transform="translate(787.37 789.96) rotate(180)" style="fill:#ebebeb"></rect><rect x="378.13" y="390.48" width="8.74" height="9" transform="translate(765 789.96) rotate(180)" style="fill:#ebebeb"></rect><rect x="389.31" y="405.76" width="8.74" height="9" transform="translate(787.37 820.52) rotate(180)" style="fill:#ebebeb"></rect><rect x="378.13" y="405.76" width="8.74" height="9" transform="translate(765 820.52) rotate(180)" style="fill:#ebebeb"></rect><rect x="389.31" y="421.04" width="8.74" height="9" transform="translate(787.37 851.08) rotate(180)" style="fill:#ebebeb"></rect><rect x="378.13" y="421.04" width="8.74" height="9" transform="translate(765 851.08) rotate(180)" style="fill:#ebebeb"></rect><rect x="389.31" y="436.32" width="8.74" height="9" transform="translate(787.37 881.63) rotate(180)" style="fill:#ebebeb"></rect><rect x="367.05" y="436.32" width="8.74" height="9" style="fill:#ebebeb"></rect><rect x="367.05" y="421.04" width="8.74" height="9" style="fill:#ebebeb"></rect><rect x="367.05" y="405.76" width="8.74" height="9" style="fill:#ebebeb"></rect><rect x="367.05" y="390.48" width="8.74" height="9" style="fill:#ebebeb"></rect><rect x="367.05" y="375.2" width="8.74" height="9" style="fill:#ebebeb"></rect><rect x="367.05" y="359.92" width="8.74" height="9" style="fill:#ebebeb"></rect><rect x="367.05" y="344.64" width="8.74" height="9" style="fill:#ebebeb"></rect><rect x="367.05" y="329.36" width="8.74" height="9" style="fill:#ebebeb"></rect><rect x="367.05" y="314.08" width="8.74" height="9" style="fill:#ebebeb"></rect><rect x="367.05" y="298.8" width="8.74" height="9" style="fill:#ebebeb"></rect><rect x="367.05" y="283.52" width="8.74" height="9" style="fill:#ebebeb"></rect><rect x="367.05" y="268.24" width="8.74" height="9" style="fill:#ebebeb"></rect><rect x="367.05" y="252.96" width="8.74" height="9" style="fill:#ebebeb"></rect><rect x="367.05" y="237.68" width="8.74" height="9" style="fill:#ebebeb"></rect><rect x="378.13" y="436.32" width="8.74" height="9" transform="translate(765 881.63) rotate(180)" style="fill:#ebebeb"></rect><rect x="324.62" y="230.03" width="35.45" height="235.7" transform="translate(684.69 695.75) rotate(180)" style="fill:#a6a6a6"></rect><rect x="328.27" y="436.32" width="7.22" height="9" style="fill:#c7c7c7"></rect><rect x="337.51" y="436.32" width="7.22" height="9" style="fill:#c7c7c7"></rect><rect x="328.27" y="421.04" width="7.22" height="9" style="fill:#c7c7c7"></rect><rect x="337.51" y="421.04" width="7.22" height="9" style="fill:#c7c7c7"></rect><rect x="328.27" y="405.76" width="7.22" height="9" style="fill:#c7c7c7"></rect><rect x="337.51" y="405.76" width="7.22" height="9" style="fill:#c7c7c7"></rect><rect x="328.27" y="390.48" width="7.22" height="9" style="fill:#c7c7c7"></rect><rect x="337.51" y="390.48" width="7.22" height="9" style="fill:#c7c7c7"></rect><rect x="328.27" y="375.2" width="7.22" height="9" style="fill:#c7c7c7"></rect><rect x="337.51" y="375.2" width="7.22" height="9" style="fill:#c7c7c7"></rect><rect x="328.27" y="359.92" width="7.22" height="9" style="fill:#c7c7c7"></rect><rect x="337.51" y="359.92" width="7.22" height="9" style="fill:#c7c7c7"></rect><rect x="328.27" y="344.64" width="7.22" height="9" style="fill:#c7c7c7"></rect><rect x="337.51" y="344.64" width="7.22" height="9" style="fill:#c7c7c7"></rect><rect x="328.27" y="329.36" width="7.22" height="9" style="fill:#c7c7c7"></rect><rect x="337.51" y="329.36" width="7.22" height="9" style="fill:#c7c7c7"></rect><rect x="328.27" y="314.08" width="7.22" height="9" style="fill:#c7c7c7"></rect><rect x="337.51" y="314.08" width="7.22" height="9" style="fill:#c7c7c7"></rect><rect x="328.27" y="298.8" width="7.22" height="9" style="fill:#c7c7c7"></rect><rect x="337.51" y="298.8" width="7.22" height="9" style="fill:#c7c7c7"></rect><rect x="328.27" y="283.52" width="7.22" height="9" style="fill:#c7c7c7"></rect><rect x="337.51" y="283.52" width="7.22" height="9" style="fill:#c7c7c7"></rect><rect x="328.27" y="268.24" width="7.22" height="9" style="fill:#c7c7c7"></rect><rect x="337.51" y="268.24" width="7.22" height="9" style="fill:#c7c7c7"></rect><rect x="328.27" y="252.96" width="7.22" height="9" style="fill:#c7c7c7"></rect><rect x="337.51" y="252.96" width="7.22" height="9" style="fill:#c7c7c7"></rect><rect x="328.27" y="237.68" width="7.22" height="9" style="fill:#c7c7c7"></rect><rect x="346.66" y="237.68" width="7.22" height="9" transform="translate(700.54 484.37) rotate(180)" style="fill:#c7c7c7"></rect><rect x="346.66" y="252.96" width="7.22" height="9" transform="translate(700.54 514.93) rotate(180)" style="fill:#c7c7c7"></rect><rect x="346.66" y="268.24" width="7.22" height="9" transform="translate(700.54 545.48) rotate(180)" style="fill:#c7c7c7"></rect><rect x="346.66" y="283.52" width="7.22" height="9" transform="translate(700.54 576.04) rotate(180)" style="fill:#c7c7c7"></rect><rect x="346.66" y="298.8" width="7.22" height="9" transform="translate(700.54 606.6) rotate(180)" style="fill:#c7c7c7"></rect><rect x="346.66" y="314.08" width="7.22" height="9" transform="translate(700.54 637.16) rotate(180)" style="fill:#c7c7c7"></rect><rect x="346.66" y="329.36" width="7.22" height="9" transform="translate(700.54 667.72) rotate(180)" style="fill:#c7c7c7"></rect><rect x="346.66" y="344.64" width="7.22" height="9" transform="translate(700.54 698.28) rotate(180)" style="fill:#c7c7c7"></rect><rect x="346.66" y="359.92" width="7.22" height="9" transform="translate(700.54 728.84) rotate(180)" style="fill:#c7c7c7"></rect><rect x="346.66" y="375.2" width="7.22" height="9" transform="translate(700.54 759.4) rotate(180)" style="fill:#c7c7c7"></rect><rect x="346.66" y="390.48" width="7.22" height="9" transform="translate(700.54 789.96) rotate(180)" style="fill:#c7c7c7"></rect><rect x="346.66" y="405.76" width="7.22" height="9" transform="translate(700.54 820.52) rotate(180)" style="fill:#c7c7c7"></rect><rect x="346.66" y="421.04" width="7.22" height="9" transform="translate(700.54 851.08) rotate(180)" style="fill:#c7c7c7"></rect><rect x="346.66" y="436.32" width="7.22" height="9" transform="translate(700.54 881.63) rotate(180)" style="fill:#c7c7c7"></rect><rect x="337.51" y="237.68" width="7.22" height="9" style="fill:#c7c7c7"></rect><rect x="389.52" y="323.45" width="56.38" height="142.36" style="fill:#ebebeb"></rect><rect x="389.53" y="318.66" width="57.73" height="4.8" transform="translate(836.78 642.11) rotate(180)" style="fill:#c7c7c7"></rect><rect x="435.09" y="330.53" width="5.71" height="135.29" style="fill:#fff"></rect><rect x="424.97" y="330.53" width="5.72" height="135.29" style="fill:#fff"></rect><rect x="414.86" y="330.53" width="5.71" height="135.29" style="fill:#fff"></rect><rect x="404.74" y="330.53" width="5.72" height="135.29" style="fill:#fff"></rect><rect x="394.62" y="330.53" width="5.71" height="135.29" style="fill:#fff"></rect><rect x="435.09" y="336.58" width="5.71" height="9.47" transform="translate(875.89 682.63) rotate(180)" style="fill:#ebebeb"></rect><rect x="424.97" y="336.58" width="5.71" height="9.47" transform="translate(855.66 682.63) rotate(180)" style="fill:#ebebeb"></rect><rect x="414.86" y="336.58" width="5.71" height="9.47" transform="translate(835.42 682.63) rotate(180)" style="fill:#ebebeb"></rect><rect x="404.74" y="336.58" width="5.71" height="9.47" transform="translate(815.19 682.63) rotate(180)" style="fill:#ebebeb"></rect><rect x="394.62" y="336.58" width="5.71" height="9.47" transform="translate(794.96 682.63) rotate(180)" style="fill:#ebebeb"></rect><rect x="435.09" y="351.97" width="5.71" height="9.47" transform="translate(875.89 713.41) rotate(180)" style="fill:#ebebeb"></rect><rect x="424.97" y="351.97" width="5.71" height="9.47" transform="translate(855.66 713.41) rotate(180)" style="fill:#ebebeb"></rect><rect x="414.86" y="351.97" width="5.71" height="9.47" transform="translate(835.42 713.41) rotate(180)" style="fill:#ebebeb"></rect><rect x="404.74" y="351.97" width="5.71" height="9.47" transform="translate(815.19 713.41) rotate(180)" style="fill:#ebebeb"></rect><rect x="394.62" y="351.97" width="5.71" height="9.47" transform="translate(794.96 713.41) rotate(180)" style="fill:#ebebeb"></rect><rect x="435.09" y="367.36" width="5.71" height="9.47" transform="translate(875.89 744.18) rotate(180)" style="fill:#ebebeb"></rect><rect x="424.97" y="367.36" width="5.71" height="9.47" transform="translate(855.66 744.18) rotate(180)" style="fill:#ebebeb"></rect><rect x="414.86" y="367.36" width="5.71" height="9.47" transform="translate(835.42 744.18) rotate(180)" style="fill:#ebebeb"></rect><rect x="404.74" y="367.36" width="5.71" height="9.47" transform="translate(815.19 744.18) rotate(180)" style="fill:#ebebeb"></rect><rect x="394.62" y="367.36" width="5.71" height="9.47" transform="translate(794.96 744.18) rotate(180)" style="fill:#ebebeb"></rect><rect x="435.09" y="382.74" width="5.71" height="9.47" transform="translate(875.89 774.95) rotate(180)" style="fill:#ebebeb"></rect><rect x="424.97" y="382.74" width="5.71" height="9.47" transform="translate(855.66 774.95) rotate(180)" style="fill:#ebebeb"></rect><rect x="414.86" y="382.74" width="5.71" height="9.47" transform="translate(835.42 774.95) rotate(180)" style="fill:#ebebeb"></rect><rect x="404.74" y="382.74" width="5.71" height="9.47" transform="translate(815.19 774.95) rotate(180)" style="fill:#ebebeb"></rect><rect x="394.62" y="382.74" width="5.71" height="9.47" transform="translate(794.96 774.95) rotate(180)" style="fill:#ebebeb"></rect><rect x="435.09" y="398.13" width="5.71" height="9.47" transform="translate(875.89 805.72) rotate(180)" style="fill:#ebebeb"></rect><rect x="424.97" y="398.13" width="5.71" height="9.47" transform="translate(855.66 805.72) rotate(180)" style="fill:#ebebeb"></rect><rect x="414.86" y="398.13" width="5.71" height="9.47" transform="translate(835.42 805.72) rotate(180)" style="fill:#ebebeb"></rect><rect x="404.74" y="398.13" width="5.71" height="9.47" transform="translate(815.19 805.72) rotate(180)" style="fill:#ebebeb"></rect><rect x="394.62" y="398.13" width="5.71" height="9.47" transform="translate(794.96 805.72) rotate(180)" style="fill:#ebebeb"></rect><rect x="435.09" y="413.52" width="5.71" height="9.47" transform="translate(875.89 836.5) rotate(180)" style="fill:#ebebeb"></rect><rect x="424.97" y="413.52" width="5.71" height="9.47" transform="translate(855.66 836.5) rotate(180)" style="fill:#ebebeb"></rect><rect x="414.86" y="413.52" width="5.71" height="9.47" transform="translate(835.42 836.5) rotate(180)" style="fill:#ebebeb"></rect><rect x="404.74" y="413.52" width="5.71" height="9.47" transform="translate(815.19 836.5) rotate(180)" style="fill:#ebebeb"></rect><rect x="394.62" y="413.52" width="5.71" height="9.47" transform="translate(794.96 836.5) rotate(180)" style="fill:#ebebeb"></rect><rect x="435.09" y="428.9" width="5.71" height="9.47" transform="translate(875.89 867.27) rotate(180)" style="fill:#ebebeb"></rect><rect x="424.97" y="428.9" width="5.71" height="9.47" transform="translate(855.66 867.27) rotate(180)" style="fill:#ebebeb"></rect><rect x="414.86" y="428.9" width="5.71" height="9.47" transform="translate(835.42 867.27) rotate(180)" style="fill:#ebebeb"></rect><rect x="404.74" y="428.9" width="5.71" height="9.47" transform="translate(815.19 867.27) rotate(180)" style="fill:#ebebeb"></rect><rect x="394.62" y="428.9" width="5.71" height="9.47" transform="translate(794.96 867.27) rotate(180)" style="fill:#ebebeb"></rect><rect x="435.09" y="444.29" width="5.71" height="9.47" transform="translate(875.89 898.04) rotate(180)" style="fill:#ebebeb"></rect><rect x="424.97" y="444.29" width="5.71" height="9.47" transform="translate(855.66 898.04) rotate(180)" style="fill:#ebebeb"></rect><rect x="414.86" y="444.29" width="5.71" height="9.47" transform="translate(835.42 898.04) rotate(180)" style="fill:#ebebeb"></rect><rect x="404.74" y="444.29" width="5.71" height="9.47" transform="translate(815.19 898.04) rotate(180)" style="fill:#ebebeb"></rect><rect x="394.62" y="444.29" width="5.71" height="9.47" transform="translate(794.96 898.04) rotate(180)" style="fill:#ebebeb"></rect><rect x="435.09" y="459.68" width="5.71" height="6.14" style="fill:#ebebeb"></rect><rect x="424.97" y="459.68" width="5.72" height="6.14" style="fill:#ebebeb"></rect><rect x="414.86" y="459.68" width="5.71" height="6.14" style="fill:#ebebeb"></rect><rect x="404.74" y="459.68" width="5.72" height="6.14" style="fill:#ebebeb"></rect><rect x="394.62" y="459.68" width="5.71" height="6.14" style="fill:#ebebeb"></rect><rect x="353.33" y="323.45" width="36.19" height="142.36" style="fill:#dbdbdb"></rect><rect x="351.77" y="318.66" width="37.76" height="4.8" transform="translate(741.29 642.11) rotate(180)" style="fill:#c7c7c7"></rect><rect x="378.71" y="330.53" width="5.72" height="135.29" style="fill:#c7c7c7"></rect><rect x="368.6" y="330.53" width="5.71" height="135.29" style="fill:#c7c7c7"></rect><rect x="358.48" y="330.53" width="5.72" height="135.29" style="fill:#c7c7c7"></rect><rect x="378.72" y="336.58" width="5.71" height="9.47" transform="translate(763.15 682.63) rotate(180)" style="fill:#dbdbdb"></rect><rect x="368.6" y="336.58" width="5.71" height="9.47" transform="translate(742.91 682.63) rotate(180)" style="fill:#dbdbdb"></rect><rect x="358.48" y="336.58" width="5.71" height="9.47" transform="translate(722.68 682.63) rotate(180)" style="fill:#dbdbdb"></rect><rect x="378.72" y="351.97" width="5.71" height="9.47" transform="translate(763.15 713.41) rotate(180)" style="fill:#dbdbdb"></rect><rect x="368.6" y="351.97" width="5.71" height="9.47" transform="translate(742.91 713.41) rotate(180)" style="fill:#dbdbdb"></rect><rect x="358.48" y="351.97" width="5.71" height="9.47" transform="translate(722.68 713.41) rotate(180)" style="fill:#dbdbdb"></rect><rect x="378.72" y="367.36" width="5.71" height="9.47" transform="translate(763.15 744.18) rotate(180)" style="fill:#dbdbdb"></rect><rect x="368.6" y="367.36" width="5.71" height="9.47" transform="translate(742.91 744.18) rotate(180)" style="fill:#dbdbdb"></rect><rect x="358.48" y="367.36" width="5.71" height="9.47" transform="translate(722.68 744.18) rotate(180)" style="fill:#dbdbdb"></rect><rect x="378.72" y="382.74" width="5.71" height="9.47" transform="translate(763.15 774.95) rotate(180)" style="fill:#dbdbdb"></rect><rect x="368.6" y="382.74" width="5.71" height="9.47" transform="translate(742.91 774.95) rotate(180)" style="fill:#dbdbdb"></rect><rect x="358.48" y="382.74" width="5.71" height="9.47" transform="translate(722.68 774.95) rotate(180)" style="fill:#dbdbdb"></rect><rect x="378.72" y="398.13" width="5.71" height="9.47" transform="translate(763.15 805.72) rotate(180)" style="fill:#dbdbdb"></rect><rect x="368.6" y="398.13" width="5.71" height="9.47" transform="translate(742.91 805.72) rotate(180)" style="fill:#dbdbdb"></rect><rect x="358.48" y="398.13" width="5.71" height="9.47" transform="translate(722.68 805.72) rotate(180)" style="fill:#dbdbdb"></rect><rect x="378.72" y="413.52" width="5.71" height="9.47" transform="translate(763.15 836.5) rotate(180)" style="fill:#dbdbdb"></rect><rect x="368.6" y="413.52" width="5.71" height="9.47" transform="translate(742.91 836.5) rotate(180)" style="fill:#dbdbdb"></rect><rect x="358.48" y="413.52" width="5.71" height="9.47" transform="translate(722.68 836.5) rotate(180)" style="fill:#dbdbdb"></rect><rect x="378.72" y="428.9" width="5.71" height="9.47" transform="translate(763.15 867.27) rotate(180)" style="fill:#dbdbdb"></rect><rect x="368.6" y="428.9" width="5.71" height="9.47" transform="translate(742.91 867.27) rotate(180)" style="fill:#dbdbdb"></rect><rect x="358.48" y="428.9" width="5.71" height="9.47" transform="translate(722.68 867.27) rotate(180)" style="fill:#dbdbdb"></rect><rect x="378.72" y="444.29" width="5.71" height="9.47" transform="translate(763.15 898.04) rotate(180)" style="fill:#dbdbdb"></rect><rect x="368.6" y="444.29" width="5.71" height="9.47" transform="translate(742.91 898.04) rotate(180)" style="fill:#dbdbdb"></rect><rect x="358.48" y="444.29" width="5.71" height="9.47" transform="translate(722.68 898.04) rotate(180)" style="fill:#dbdbdb"></rect><rect x="378.71" y="459.68" width="5.72" height="6.14" style="fill:#dbdbdb"></rect><rect x="368.6" y="459.68" width="5.71" height="6.14" style="fill:#dbdbdb"></rect><rect x="358.48" y="459.68" width="5.72" height="6.14" style="fill:#dbdbdb"></rect><rect x="298.27" y="299.86" width="23.76" height="28.07" transform="translate(620.3 627.79) rotate(180)" style="fill:#dbdbdb"></rect><rect x="283.21" y="299.86" width="15.06" height="29.09" transform="translate(581.48 628.82) rotate(180)" style="fill:#c7c7c7"></rect><rect x="282.2" y="312.25" width="14.95" height="16.7" transform="translate(579.36 641.21) rotate(180)" style="fill:#dbdbdb"></rect><rect x="272.88" y="312.25" width="9.32" height="16.7" transform="translate(555.08 641.21) rotate(180)" style="fill:#c7c7c7"></rect><rect x="292.72" y="326.1" width="38.42" height="139.62" transform="translate(623.86 791.83) rotate(180)" style="fill:#ebebeb"></rect><rect x="314.67" y="332.1" width="12.08" height="4.94" transform="translate(641.42 669.15) rotate(180)" style="fill:#fff"></rect><rect x="299.22" y="332.1" width="12.08" height="4.94" transform="translate(610.51 669.15) rotate(180)" style="fill:#fff"></rect><rect x="314.67" y="340.49" width="12.08" height="4.94" transform="translate(641.42 685.91) rotate(180)" style="fill:#fff"></rect><rect x="299.22" y="340.49" width="12.08" height="4.94" transform="translate(610.51 685.91) rotate(180)" style="fill:#fff"></rect><rect x="314.67" y="348.87" width="12.08" height="4.94" transform="translate(641.42 702.67) rotate(180)" style="fill:#fff"></rect><rect x="299.22" y="348.87" width="12.08" height="4.94" transform="translate(610.51 702.67) rotate(180)" style="fill:#fff"></rect><rect x="314.67" y="357.25" width="12.08" height="4.94" transform="translate(641.42 719.43) rotate(180)" style="fill:#fff"></rect><rect x="299.22" y="357.25" width="12.08" height="4.94" transform="translate(610.51 719.43) rotate(180)" style="fill:#fff"></rect><rect x="314.67" y="365.63" width="12.08" height="4.94" transform="translate(641.42 736.19) rotate(180)" style="fill:#fff"></rect><rect x="299.22" y="365.63" width="12.08" height="4.94" transform="translate(610.51 736.19) rotate(180)" style="fill:#fff"></rect><rect x="314.67" y="374.01" width="12.08" height="4.94" transform="translate(641.42 752.95) rotate(180)" style="fill:#fff"></rect><rect x="299.22" y="374.01" width="12.08" height="4.94" transform="translate(610.51 752.95) rotate(180)" style="fill:#fff"></rect><rect x="314.67" y="382.39" width="12.08" height="4.94" transform="translate(641.42 769.71) rotate(180)" style="fill:#fff"></rect><rect x="299.22" y="382.39" width="12.08" height="4.94" transform="translate(610.51 769.71) rotate(180)" style="fill:#fff"></rect><rect x="314.67" y="390.77" width="12.08" height="4.94" transform="translate(641.42 786.47) rotate(180)" style="fill:#fff"></rect><rect x="299.22" y="390.77" width="12.08" height="4.94" transform="translate(610.51 786.47) rotate(180)" style="fill:#fff"></rect><rect x="314.67" y="399.15" width="12.08" height="4.94" transform="translate(641.42 803.24) rotate(180)" style="fill:#fff"></rect><rect x="299.22" y="399.15" width="12.08" height="4.94" transform="translate(610.51 803.24) rotate(180)" style="fill:#fff"></rect><rect x="314.67" y="407.53" width="12.08" height="4.94" transform="translate(641.42 820) rotate(180)" style="fill:#fff"></rect><rect x="299.22" y="407.53" width="12.08" height="4.94" transform="translate(610.51 820) rotate(180)" style="fill:#fff"></rect><rect x="314.67" y="415.91" width="12.08" height="4.94" transform="translate(641.42 836.76) rotate(180)" style="fill:#fff"></rect><rect x="299.22" y="415.91" width="12.08" height="4.94" transform="translate(610.51 836.76) rotate(180)" style="fill:#fff"></rect><rect x="314.67" y="424.29" width="12.08" height="4.94" transform="translate(641.42 853.52) rotate(180)" style="fill:#fff"></rect><rect x="299.22" y="424.29" width="12.08" height="4.94" transform="translate(610.51 853.52) rotate(180)" style="fill:#fff"></rect><rect x="314.67" y="432.67" width="12.08" height="4.94" transform="translate(641.42 870.28) rotate(180)" style="fill:#fff"></rect><rect x="299.22" y="432.67" width="12.08" height="4.94" transform="translate(610.51 870.28) rotate(180)" style="fill:#fff"></rect><rect x="314.67" y="441.05" width="12.08" height="4.94" transform="translate(641.42 887.04) rotate(180)" style="fill:#fff"></rect><rect x="299.22" y="441.05" width="12.08" height="4.94" transform="translate(610.51 887.04) rotate(180)" style="fill:#fff"></rect><rect x="261.59" y="326.1" width="31.13" height="139.62" transform="translate(554.32 791.83) rotate(180)" style="fill:#c7c7c7"></rect><rect x="264.71" y="441.05" width="9.92" height="4.94" style="fill:#ebebeb"></rect><rect x="277.4" y="441.05" width="9.92" height="4.94" style="fill:#ebebeb"></rect><rect x="264.71" y="432.67" width="9.92" height="4.94" style="fill:#ebebeb"></rect><rect x="277.4" y="432.67" width="9.92" height="4.94" style="fill:#ebebeb"></rect><rect x="264.71" y="424.29" width="9.92" height="4.94" style="fill:#ebebeb"></rect><rect x="277.4" y="424.29" width="9.92" height="4.94" style="fill:#ebebeb"></rect><rect x="264.71" y="415.91" width="9.92" height="4.94" style="fill:#ebebeb"></rect><rect x="277.4" y="415.91" width="9.92" height="4.94" style="fill:#ebebeb"></rect><rect x="264.71" y="407.53" width="9.92" height="4.94" style="fill:#ebebeb"></rect><rect x="277.4" y="407.53" width="9.92" height="4.94" style="fill:#ebebeb"></rect><rect x="264.71" y="399.15" width="9.92" height="4.94" style="fill:#ebebeb"></rect><rect x="277.4" y="399.15" width="9.92" height="4.94" style="fill:#ebebeb"></rect><rect x="264.71" y="390.77" width="9.92" height="4.94" style="fill:#ebebeb"></rect><rect x="277.4" y="390.77" width="9.92" height="4.94" style="fill:#ebebeb"></rect><rect x="264.71" y="382.39" width="9.92" height="4.94" style="fill:#ebebeb"></rect><rect x="277.4" y="382.39" width="9.92" height="4.94" style="fill:#ebebeb"></rect><rect x="264.71" y="374.01" width="9.92" height="4.94" style="fill:#ebebeb"></rect><rect x="277.4" y="374.01" width="9.92" height="4.94" style="fill:#ebebeb"></rect><rect x="264.71" y="365.63" width="9.92" height="4.94" style="fill:#ebebeb"></rect><rect x="277.4" y="365.63" width="9.92" height="4.94" style="fill:#ebebeb"></rect><rect x="264.71" y="357.25" width="9.92" height="4.94" style="fill:#ebebeb"></rect><rect x="277.4" y="357.25" width="9.92" height="4.94" style="fill:#ebebeb"></rect><rect x="264.71" y="348.87" width="9.92" height="4.94" style="fill:#ebebeb"></rect><rect x="277.4" y="348.87" width="9.92" height="4.94" style="fill:#ebebeb"></rect><rect x="264.71" y="340.49" width="9.92" height="4.94" style="fill:#ebebeb"></rect><rect x="277.4" y="340.49" width="9.92" height="4.94" style="fill:#ebebeb"></rect><rect x="264.71" y="332.1" width="9.92" height="4.94" style="fill:#ebebeb"></rect><rect x="277.4" y="332.1" width="9.92" height="4.94" style="fill:#ebebeb"></rect><polygon points="290.75 171.78 290.75 209.77 378.66 209.77 386.57 224.29 394.48 209.77 406.69 209.77 406.69 171.78 290.75 171.78" style="fill:#fff"></polygon><path d="M290.75,171.78l.26,38c-1.67-.71,88.05-.18,87.65-.41h.24l.12.21,8,14.5h-.8L394,209.53l.14-.26h12.51l-.48.48.1-38,.38.37c-28.89,0-87.05-.23-115.94-.37Zm0,0c28.91-.14,87-.35,115.94-.38h.37v.38l.1,38v.48h-.48l-12.21,0,.43-.26L387,224.51l-.4.74-.4-.74L378.3,210l.36.22c-.41-.13-87.81-.07-88.16-.16v-.26l.25-38Z" style="fill:#ebebeb"></path><polygon points="309.98 184.34 312.49 188.08 316.83 189.32 314.04 192.86 314.21 197.37 309.98 195.82 305.75 197.37 305.91 192.86 303.13 189.32 307.47 188.08 309.98 184.34" style="fill:#ebebeb"></polygon><polygon points="329.35 184.34 331.86 188.08 336.2 189.32 333.42 192.86 333.58 197.37 329.35 195.82 325.12 197.37 325.29 192.86 322.5 189.32 326.84 188.08 329.35 184.34" style="fill:#ebebeb"></polygon><polygon points="348.72 184.34 351.23 188.08 355.57 189.32 352.79 192.86 352.95 197.37 348.72 195.82 344.49 197.37 344.66 192.86 341.87 189.32 346.21 188.08 348.72 184.34" style="fill:#ebebeb"></polygon><polygon points="368.09 184.34 370.6 188.08 374.94 189.32 372.16 192.86 372.32 197.37 368.09 195.82 363.86 197.37 364.03 192.86 361.24 189.32 365.58 188.08 368.09 184.34" style="fill:#ebebeb"></polygon><path d="M382.7,198.09l.19-5.06-3.13-4,4.88-1.39,2.82-4.21,2.83,4.21,4.88,1.39L392,193l.19,5.06-4.76-1.74Zm4.76-2.81,3.71,1.36L391,192.7l2.44-3.11-3.8-1.07-2.2-3.28-2.2,3.28-3.79,1.07,2.43,3.11-.14,3.94Z" style="fill:#ebebeb"></path><polygon points="438.79 267.68 438.79 296.63 371.81 296.63 365.79 307.69 359.76 296.63 350.46 296.63 350.46 267.68 438.79 267.68" style="fill:#fff"></polygon><path d="M438.79,267.68l.26,28.95v.26L405.3,297l-33.49.06.4-.23-6,11.07-.42.77-.42-.77-6.05-11.05.44.26H350v-.49l.06-28.95v-.43h.43l88.33.43Zm0,0-88.33.43.43-.43.06,28.95-.49-.49h9.6l.14.26,6,11.07h-.84l6.05-11,.13-.23h.26c16.68,0,50.3.11,67,.19l-.27.26.27-28.95Z" style="fill:#ebebeb"></path><polygon points="365.11 277.26 367.02 280.11 370.32 281.05 368.2 283.75 368.33 287.18 365.11 286 361.88 287.18 362.01 283.75 359.89 281.05 363.19 280.11 365.11 277.26" style="fill:#ebebeb"></polygon><polygon points="379.87 277.26 381.78 280.11 385.08 281.05 382.96 283.75 383.09 287.18 379.87 286 376.64 287.18 376.77 283.75 374.65 281.05 377.95 280.11 379.87 277.26" style="fill:#ebebeb"></polygon><polygon points="394.62 277.26 396.54 280.11 399.84 281.05 397.72 283.75 397.85 287.18 394.62 286 391.4 287.18 391.53 283.75 389.4 281.05 392.71 280.11 394.62 277.26" style="fill:#ebebeb"></polygon><path d="M413.13,287.91l-3.75-1.38-3.75,1.38.15-4-2.47-3.14,3.84-1.09,2.23-3.32,2.23,3.32,3.84,1.09L413,283.91Zm-3.75-2.44,2.7,1-.11-2.88,1.78-2.26-2.77-.78-1.6-2.39-1.6,2.39-2.76.78,1.77,2.26-.11,2.88Z" style="fill:#ebebeb"></path><path d="M427.89,287.91l-3.75-1.38-3.75,1.38.15-4-2.47-3.14,3.84-1.09,2.23-3.32,2.23,3.32,3.84,1.09-2.47,3.14Zm-8.12-6.59,1.78,2.26-.11,2.88,2.7-1,2.7,1-.11-2.88,1.77-2.26-2.76-.78-1.6-2.39-1.6,2.39Z" style="fill:#ebebeb"></path></g><g id="freepik--Floor--inject-135"><polygon points="52.75 465.32 102.06 465.08 151.37 464.99 250 464.82 348.63 464.99 397.94 465.07 447.25 465.32 397.94 465.56 348.63 465.65 250 465.82 151.37 465.65 102.06 465.56 52.75 465.32" style="fill:#263238"></polygon></g><g id="freepik--Device--inject-135"><path d="M248.91,53.5H67.26A18.54,18.54,0,0,0,48.88,72.21v374a18.56,18.56,0,0,0,18.38,18.71H248.91a18.56,18.56,0,0,0,18.39-18.71v-374A18.55,18.55,0,0,0,248.91,53.5Zm6.91,381.1c0,9.85-7.37,17.81-16.46,17.81H76.84c-9.11,0-16.48-8-16.48-17.81V86.39c0-20,7.37-21,16.48-21h32.55c1.89,0,3.44,2.15,3.44,4.81v1.15c0,6.25,3.42,6.27,7.62,6.27h75.28c4.23,0,7.62,0,7.62-6.27V70.17c0-2.66,1.52-4.81,3.45-4.81h32.56c9.09,0,16.46,2.66,16.46,21Z" style="fill:#455a64"></path><path d="M168.36,69.79H147.82a1.27,1.27,0,0,1-1.27-1.27h0a1.27,1.27,0,0,1,1.27-1.27h20.54a1.27,1.27,0,0,1,1.27,1.27h0A1.27,1.27,0,0,1,168.36,69.79Z" style="fill:#263238"></path><path d="M255.82,86.39V434.6c0,9.85-7.37,17.81-16.46,17.81H76.84c-9.11,0-16.48-8-16.48-17.81V86.39c0-20,7.37-21,16.48-21h32.55c1.89,0,3.44,2.15,3.44,4.81v1.15c0,6.25,3.42,6.27,7.62,6.27h75.28c4.23,0,7.62,0,7.62-6.27V70.17c0-2.66,1.52-4.81,3.45-4.81h32.56C248.45,65.36,255.82,68,255.82,86.39Z" style="fill:#fff"></path><path d="M250.34,68.39H203.59c.51-1.78,1.74-3,3.2-3h32.57C243.58,65.35,247.42,65.93,250.34,68.39Z" style="fill:#dbdbdb"></path><path d="M60.36,417.44v4.64H76.55v-4.64ZM255.81,130.72l-52.6,55.76H179v-46h9.61v-4.67H174.37v50.72H148.14V77.59h-9.31v32.63H60.36v9.3h78.47v67h-76v18.29H60.36v4.66h2.46v69.19l14,32H60.36v9.3H80.88l11,25a33.12,33.12,0,0,0,10.52,63.4h0l22.75,37.18-6.87,6.87h22l-27.45-44.83a33.23,33.23,0,0,0,25.39-32.22A32.84,32.84,0,0,0,136,363.59L201,332.7h54.84v-9.3h-26l-54.49-59.23h80.5v-4.65H171L112.4,195.77h94.82l32-34,16.55,16.55V165.19l-10.15-10.14,10.15-10.78ZM105,399.21a23.85,23.85,0,1,1,23.85-23.85A23.87,23.87,0,0,1,105,399.21ZM217.16,323.4H198.87l-67.35,32a33.14,33.14,0,0,0-30.62-12.95L72.12,276.66V195.77H99.75Zm6.92,129h6.59l25.14-25.15v-6.59Z" style="fill:#ebebeb"></path><rect x="80.09" y="202.83" width="13.52" height="13.52" style="fill:#dbdbdb"></rect><polygon points="220.62 254.69 220.62 228.57 211.12 228.57 211.12 217.66 194.4 217.66 194.4 254.69 220.62 254.69" style="fill:#dbdbdb"></polygon><polygon points="174.23 77.59 174.23 103.86 160.07 103.86 160.07 87.86 152.41 87.86 152.41 77.59 174.23 77.59" style="fill:#dbdbdb"></polygon><path d="M255.81,86.38v9.06H244V72.65h9.51C255,75.77,255.81,80.18,255.81,86.38Z" style="fill:#dbdbdb"></path><polygon points="182.69 182.53 182.69 163.11 219.08 163.11 199.42 182.77 182.69 182.53" style="fill:#dbdbdb"></polygon><rect x="152.42" y="164.49" width="18.28" height="18.28" style="fill:#dbdbdb"></rect><rect x="112.44" y="123.16" width="22.02" height="20.25" style="fill:#dbdbdb"></rect><polygon points="134.46 147.39 134.46 182.77 107.53 182.77 90.36 165.59 90.36 147.39 134.46 147.39" style="fill:#dbdbdb"></polygon><polygon points="85.5 169.5 99.02 183.03 62.92 183.03 62.92 169.5 85.5 169.5" style="fill:#dbdbdb"></polygon><polygon points="83.56 340.42 60.36 340.42 60.36 324.13 77 324.13 83.56 340.42" style="fill:#dbdbdb"></polygon><path d="M77.25,403.21V411H60.36v-34.8H65A50.16,50.16,0,0,0,77.25,403.21Z" style="fill:#dbdbdb"></path><path d="M158.11,335.61,144,305.05H126.72L97.29,318.7,105,335.51H105a39.77,39.77,0,0,1,28,11.42Z" style="fill:#dbdbdb"></path><polygon points="255.81 297.54 255.81 317.84 233.68 317.84 215 297.54 255.81 297.54" style="fill:#ebebeb"></polygon><path d="M116.78,443.84l-8.1,8.57H76.84a15.54,15.54,0,0,1-3.51-.41v-9.65H87.1V421l10.37-8.73Z" style="fill:#ebebeb"></path><path d="M182.33,408l-27.92-29.11-10.71,8.37a40.45,40.45,0,0,1-19.81,23.85l23.36,38.16Z" style="fill:#dbdbdb"></path><polygon points="151.91 366.06 200.97 341.81 225.44 341.81 225.44 384.46 187.29 403.3 151.91 366.06" style="fill:#dbdbdb"></polygon><path d="M255.79,435.39c-.34,8.61-6.32,15.6-14,16.83H239Z" style="fill:#dbdbdb"></path><polygon points="80.09 222 80.09 275.61 95.05 312.2 122.35 298.68 186 298.68 114.62 222 80.09 222" style="fill:#ebebeb"></polygon><polygon points="235.36 145.32 182.69 145.32 182.69 158.52 222.91 158.52 235.36 145.32" style="fill:#dbdbdb"></polygon><polygon points="69.77 306.23 60.36 306.23 60.36 284.45 69.77 306.23" style="fill:#dbdbdb"></polygon><rect x="232.22" y="341.81" width="23.59" height="27.9" style="fill:#dbdbdb"></rect><rect x="232.22" y="374.05" width="23.59" height="9.79" style="fill:#dbdbdb"></rect><polygon points="226.35 442.97 216.91 452.41 154.89 452.41 187.72 412.31 226.35 442.97" style="fill:#dbdbdb"></polygon><polygon points="229.73 438.35 245.66 423.06 226.34 406.24 226.34 391.11 192.28 408.46 229.73 438.35" style="fill:#ebebeb"></polygon><polygon points="255.81 388.17 255.81 411.89 249.5 417.83 232.22 403.3 232.22 388.17 255.81 388.17" style="fill:#dbdbdb"></polygon><path d="M66.43,427.4v21a18.33,18.33,0,0,1-6.07-13.81v-7.2Z" style="fill:#dbdbdb"></path><rect x="73.32" y="429.6" width="8.21" height="8.21" style="fill:#dbdbdb"></rect><path d="M133.05,77.59v27H81V73.68L90,65.35H109.4c1.88,0,3.42,2.16,3.42,4.82v1.15c0,6.24,3.43,6.27,7.62,6.27Z" style="fill:#dbdbdb"></path><rect x="60.36" y="88.03" width="16.2" height="16.6" style="fill:#ebebeb"></rect><path d="M76.56,74.46v9.28H60.41a38.55,38.55,0,0,1,1.29-9.28Z" style="fill:#dbdbdb"></path><path d="M85.14,65.35l-5.72,5.37H63.29c3-5,7.93-5.37,13.55-5.37Z" style="fill:#dbdbdb"></path><polygon points="189.01 269.81 211.12 293.03 232.22 293.03 232.22 269.81 189.01 269.81" style="fill:#dbdbdb"></polygon><rect x="236.6" y="282.35" width="19.21" height="10.68" style="fill:#dbdbdb"></rect><rect x="236.6" y="269.81" width="11.3" height="9.7" style="fill:#ebebeb"></rect><rect x="250.71" y="269.8" width="5.1" height="9.71" style="fill:#dbdbdb"></rect><polygon points="150.57 305.05 186 305.05 186 322 163.35 332.28 150.57 305.05" style="fill:#dbdbdb"></polygon><circle cx="105.04" cy="375.49" r="15.91" transform="translate(-280.44 434.05) rotate(-83.01)" style="fill:#ebebeb"></circle><rect x="60.36" y="123.16" width="8.51" height="12.22" style="fill:#dbdbdb"></rect><polygon points="85.11 165.08 85.11 123.17 72.12 123.17 72.12 156.87 62.93 156.87 62.93 165.08 85.11 165.08" style="fill:#dbdbdb"></polygon><rect x="90.36" y="123.16" width="18.38" height="19.13" style="fill:#ebebeb"></rect><rect x="60.36" y="137.73" width="8.51" height="15.45" style="fill:#dbdbdb"></rect><rect x="224.58" y="228.57" width="27.32" height="26.12" style="fill:#ebebeb"></rect><polygon points="124.84 200.44 153.34 231.45 189.1 231.45 189.1 200.44 124.84 200.44" style="fill:#dbdbdb"></polygon><polygon points="157.4 235.03 175.48 254.69 189.01 254.69 189.01 235.03 157.4 235.03" style="fill:#ebebeb"></polygon><rect x="194.4" y="200.44" width="16.72" height="12.95" style="fill:#dbdbdb"></rect><polygon points="251.9 212.85 251.9 183.73 238.68 169.5 215.65 194.21 215.65 222.47 242.96 222.47 242.96 212.85 251.9 212.85" style="fill:#ebebeb"></polygon><polygon points="255.81 151.56 255.81 159.37 252.04 155.68 255.81 151.56" style="fill:#dbdbdb"></polygon><polygon points="255.81 99.69 255.81 123.7 239.95 141.12 219.07 141.12 219.07 99.69 255.81 99.69" style="fill:#dbdbdb"></polygon><rect x="193.91" y="114.86" width="20.31" height="26.26" style="fill:#ebebeb"></rect><path d="M240,72.65V95.44H214.22v16.12H193.91v-34h1.82c3.91,0,7.1,0,7.56-4.94Z" style="fill:#ebebeb"></path><rect x="176.7" y="77.59" width="14.58" height="17.3" style="fill:#dbdbdb"></rect><rect x="152.42" y="106.69" width="38.87" height="19.11" style="fill:#dbdbdb"></rect><rect x="176.7" y="97.65" width="14.59" height="6.2" style="fill:#dbdbdb"></rect><polygon points="170.7 160.84 160.07 160.84 152.42 153.57 152.42 132.44 170.7 132.44 170.7 160.84" style="fill:#dbdbdb"></polygon><g id="freepik--u5Zjqx--inject-135"><path d="M103.77,73.18l-.31.31-.18.18a4.27,4.27,0,0,0-6.06,0,1.37,1.37,0,0,1-.17-.17l-.31-.31h0l0,0c.13-.11.26-.24.4-.35a4.61,4.61,0,0,1,.92-.58,4.09,4.09,0,0,1,1.22-.41c.2,0,.4-.06.61-.09s.52,0,.53,0,.28,0,.41,0A4.68,4.68,0,0,1,102,72a4.82,4.82,0,0,1,.76.36,4,4,0,0,1,.72.5l.33.3Z" style="fill:#a6a6a6"></path><path d="M98.21,74.66c-.16-.17-.32-.33-.49-.49a3.47,3.47,0,0,1,2-1,3.53,3.53,0,0,1,3,1l-.5.5a2.81,2.81,0,0,0-2-.84A2.85,2.85,0,0,0,98.21,74.66Z" style="fill:#a6a6a6"></path><path d="M101.79,75.16l-.5.49a1.43,1.43,0,0,0-1-.43,1.44,1.44,0,0,0-1,.43l-.5-.49A2.16,2.16,0,0,1,101.79,75.16Z" style="fill:#a6a6a6"></path><path d="M100.7,76.1a.45.45,0,1,1-.45-.45A.45.45,0,0,1,100.7,76.1Z" style="fill:#a6a6a6"></path></g><circle cx="74.4" cy="74.13" r="1.3" style="fill:#a6a6a6"></circle><path d="M77.18,74.13a1.3,1.3,0,1,1,1.3,1.3A1.3,1.3,0,0,1,77.18,74.13Z" style="fill:#a6a6a6"></path><circle cx="82.56" cy="74.13" r="1.3" style="fill:#a6a6a6"></circle><path d="M85.34,74.13a1.3,1.3,0,1,1,1.3,1.3A1.3,1.3,0,0,1,85.34,74.13Z" style="fill:#a6a6a6"></path><path d="M89.42,74.13a1.3,1.3,0,1,1,1.3,1.3A1.3,1.3,0,0,1,89.42,74.13Z" style="fill:#a6a6a6"></path><rect x="230.88" y="72.34" width="10.01" height="4.35" style="fill:#a6a6a6"></rect><path d="M241.13,76.94h-10.5V72.09h10.5Zm-10-.5h9.5V72.59h-9.5Z" style="fill:#fff"></path><rect x="231.48" y="72.9" width="6.8" height="3.23" style="fill:#a6a6a6"></rect><rect x="241.16" y="73.21" width="0.94" height="2.61" style="fill:#a6a6a6"></rect><path d="M130.3,140.62c-.88-8.75-6.91-17.46-17.5-17.46s-16.6,8.71-17.48,17.46c-1.32,13.49,7.77,25.74,17.48,36.9C122.54,166.36,131.65,154.11,130.3,140.62Zm-17.5,9.71a9.57,9.57,0,1,1,9.61-9.58A9.56,9.56,0,0,1,112.8,150.33Z" style="fill:#FFC727"></path><path d="M255.82,371.73V434.6c0,9.85-7.37,17.81-16.46,17.81H76.84c-9.11,0-16.48-8-16.48-17.81V371.73Z" style="fill:#fff"></path><path d="M105.51,393.5c-.6-5.95-4.71-11.87-11.91-11.87s-11.28,5.92-11.88,11.87c-.9,9.17,5.28,17.5,11.88,25.09C100.22,411,106.42,402.67,105.51,393.5ZM93.6,400.1a6.51,6.51,0,1,1,6.53-6.51A6.49,6.49,0,0,1,93.6,400.1Z" style="fill:#FFC727"></path><rect x="116.5" y="405.15" width="120.94" height="1.91" style="fill:#ebebeb"></rect><rect x="116.5" y="410.39" width="75.77" height="1.91" style="fill:#ebebeb"></rect><rect x="116.5" y="383.08" width="37.89" height="2.76" style="fill:#FFC727"></rect><polygon points="120.31 390.19 121.71 392.27 124.12 392.96 122.57 394.93 122.67 397.44 120.31 396.57 117.96 397.44 118.05 394.93 116.5 392.96 118.92 392.27 120.31 390.19" style="fill:#FFC727"></polygon><polygon points="131.08 390.19 132.48 392.27 134.89 392.96 133.34 394.93 133.44 397.44 131.08 396.57 128.73 397.44 128.82 394.93 127.27 392.96 129.69 392.27 131.08 390.19" style="fill:#FFC727"></polygon><polygon points="141.85 390.19 143.25 392.27 145.66 392.96 144.11 394.93 144.21 397.44 141.85 396.57 139.5 397.44 139.59 394.93 138.04 392.96 140.46 392.27 141.85 390.19" style="fill:#FFC727"></polygon><polygon points="152.62 390.19 154.02 392.27 156.43 392.96 154.88 394.93 154.97 397.44 152.62 396.57 150.27 397.44 150.36 394.93 148.81 392.96 151.22 392.27 152.62 390.19" style="fill:#FFC727"></polygon><polygon points="163.39 396.57 163.39 390.19 161.99 392.27 159.58 392.96 161.13 394.93 161.04 397.44 163.39 396.57" style="fill:#FFC727"></polygon><path d="M163.39,390.19l1.48,2c.5,0,1.65.42,2.37.58l.24.06-.15.2-1.51,2,0-.14.12,2.51v.34l-2.68-1h.17l-2.69,1,0-.34.11-2.51,0,.14-1.51-2-.15-.2.24-.06c.71-.16,1.88-.55,2.37-.58l1.48-2Zm0,0c-.5.73-.88,1.53-1.37,2.18-.79.26-1.59.5-2.39.75l.08-.26,1.59,1.94c0,.06,0,.06,0,.14l-.07,2.5-.31-.22,2.34-.88.09,0,.09,0,2.34.88-.31.22-.07-2.5c0-.08,0-.08,0-.14l1.59-1.94.08.26c-.79-.25-1.6-.49-2.39-.75-.48-.65-.87-1.45-1.37-2.18Z" style="fill:#FFC727"></path><rect x="81.63" y="427.13" width="51.42" height="13.14" style="fill:#FFC727"></rect><path d="M184.33,440.77H144V426.63h40.35Zm-39.35-1h38.35V427.63H145Z" style="fill:#dbdbdb"></path><path d="M234,440.77H193.68V426.63H234Zm-39.36-1H233V427.63H194.68Z" style="fill:#dbdbdb"></path><circle cx="237.44" cy="353.15" r="9.96" style="fill:#455a64"></circle><path d="M237.23,358.27l-1.36-4-4-1.37,9.31-3.78ZM234,352.88l2.45.84.85,2.48,2.45-5.66Z" style="fill:#fff"></path><path d="M229.52,110.31H86.65a9.56,9.56,0,0,1-9.56-9.56h0a9.56,9.56,0,0,1,9.56-9.56H229.52a9.56,9.56,0,0,1,9.56,9.56h0A9.56,9.56,0,0,1,229.52,110.31Z" style="fill:#fff"></path><path d="M229.52,110.31l-129.67.19H89.05c-3.65.28-7.56-.51-9.93-3.53-5.27-6.24-.65-16.09,7.53-16l129.67.19,10.81,0c2.68-.09,5.53,0,7.79,1.67,7.7,5.3,4,17.46-5.4,17.49Zm0,0c9.29,0,13.09-12.15,5.36-17.43-2.27-1.63-5-1.73-7.75-1.64l-10.81,0-129.67.18a9.36,9.36,0,0,0-7.2,15.26c2.33,2.94,6,3.65,9.6,3.41h10.8l43.23.07,86.44.12Z" style="fill:#263238"></path><path d="M91.44,104.6l-1,.78-1.89-2.5-.7-.92a1.56,1.56,0,0,0,.4-.22,1.76,1.76,0,0,0,.53-.69l.73,1Z" style="fill:#263238"></path><path d="M89.43,98.71a2.79,2.79,0,1,0-.9,4.17c.13-.08.26-.16.38-.25a2.74,2.74,0,0,0,.58-.6A2.81,2.81,0,0,0,89.43,98.71Zm-1.2,3a1.56,1.56,0,0,1-.4.22,1.67,1.67,0,0,1-1.63-2.87,1.67,1.67,0,0,1,2.56,2A1.76,1.76,0,0,1,88.23,101.74Z" style="fill:#263238"></path></g><g id="freepik--Bike--inject-135"><polygon points="224.33 438.14 229.85 441.37 250.24 402.49 244.72 399.26 224.33 438.14" style="fill:#c7c7c7"></polygon><rect x="213.14" y="436.62" width="28.26" height="8.2" style="fill:#263238"></rect><polygon points="186.88 268.7 199.49 296.84 205.94 296.84 193.34 268.7 186.88 268.7" style="fill:#37474f"></polygon><path d="M162.59,262.35c-4.94,9.22,23.22,11.17,35.27,9s28.55,1.42,28.55-5.32S171.81,245.16,162.59,262.35Z" style="fill:#263238"></path><rect x="192.69" y="284.02" width="11.18" height="2.55" transform="translate(396.56 570.59) rotate(180)" style="fill:#37474f"></rect><path d="M252.36,400.6,251,402c-1.32,1.29-4.18,1.3-5-.65l-6.06-14.19c-14-32.75-31.23-67.82-45.21-100.57h6.93c1.94,4.55,33.34,73.24,48.16,107.61l0,0,.1.25c.56,1.27,1.08,2.49,1.58,3.66h-.12Z" style="fill:#FFC727"></path><path d="M332.52,321.55c-.7.7-1.4,1.4-2.11,2.09l-77.29,76.22-1.92,1.89-1-2.51.12,0c-.5-1.17-1-2.4-1.58-3.67l-.1-.25,0,0,8.12-8,73.76-72.74C331.17,316.9,331.84,319.23,332.52,321.55Z" style="fill:#FFC727"></path><path d="M252.38,398.1l-1.47-3.65c.56,1.27,1.08,2.49,1.58,3.66Z" style="fill:#FFC727"></path><path d="M374.92,395.58l-23.13-22.33c-4.25-4.12-6-6-7.59-11.56q-4.24-14.55-8.46-29.07-1.61-5.53-3.22-11.07c-.68-2.32-1.35-4.64-2-7-1.5-5.16-3.82-13.15-6.24-21.4h6.65c.72,2.42,1.32,4.47,1.74,5.92,1,3.45,2,6.92,3,10.37q1,3.51,2,7,6.51,22.47,13.06,45c.28.9.6,1.81.81,2.72,2.79,2.65,5.54,5.37,8.31,8.05l19.55,18.88C382.4,393.93,377.88,398.45,374.92,395.58Z" style="fill:#FFC727"></path><path d="M247.06,396.52H142.17l2.76,4.81q25.8-45.19,51.58-90.39l7.4-13-2.76,1.58h125c4.12,0,4.12-6.39,0-6.39h-125a3.2,3.2,0,0,0-2.76,1.59q-25.8,45.19-51.58,90.39l-7.4,13a3.23,3.23,0,0,0,2.76,4.8H247.06c4.11,0,4.12-6.39,0-6.39Z" style="fill:#FFC727"></path><path d="M150.47,330.43c.06,5.46-.15,10.91-.55,16.35-.24,2.72-.57,5.43-.77,8.15s-.29,5.45-.36,8.17c-.1,5.46-.35,10.91-.67,16.35s-.83,10.88-1.51,16.3h-.11c0-5.46.15-10.91.42-16.36s.72-10.88,1.25-16.31c.26-2.72.48-5.44.61-8.16s.12-5.46.2-8.18c.24-5.45.67-10.89,1.37-16.31Z" style="fill:#a6a6a6"></path><path d="M139.07,330.74c1,5.37,1.75,10.78,2.3,16.2.23,2.72.38,5.45.65,8.16s.66,5.41,1.07,8.11c.84,5.39,1.55,10.8,2.18,16.22s1.07,10.85,1.34,16.31h-.11c-1-5.37-1.74-10.78-2.43-16.19s-1.18-10.84-1.59-16.28c-.22-2.72-.47-5.43-.82-8.14s-.84-5.39-1.23-8.09c-.71-5.41-1.23-10.83-1.48-16.3Z" style="fill:#a6a6a6"></path><path d="M127.89,333c1.93,5.12,3.6,10.31,5.08,15.56.7,2.63,1.32,5.29,2.06,7.91s1.59,5.22,2.47,7.81c1.76,5.16,3.39,10.36,5,15.59s2.94,10.5,4.15,15.83l-.11,0c-1.9-5.12-3.59-10.31-5.2-15.52s-3.05-10.47-4.4-15.76c-.69-2.64-1.41-5.27-2.22-7.87s-1.76-5.17-2.61-7.75c-1.64-5.21-3.09-10.46-4.29-15.8Z" style="fill:#a6a6a6"></path><path d="M117.29,337.22c2.78,4.71,5.33,9.53,7.7,14.44,1.15,2.47,2.22,5,3.41,7.44s2.46,4.86,3.77,7.26c2.64,4.78,5.15,9.62,7.6,14.49s4.72,9.83,6.84,14.87l-.1,0c-2.77-4.71-5.33-9.53-7.82-14.38s-4.82-9.78-7.07-14.75c-1.14-2.49-2.3-4.95-3.55-7.37s-2.63-4.78-3.93-7.19c-2.51-4.83-4.85-9.76-7-14.81Z" style="fill:#a6a6a6"></path><path d="M107.57,343.2c3.56,4.14,6.9,8.45,10.09,12.88,1.56,2.23,3.06,4.52,4.65,6.73s3.27,4.36,5,6.49c3.42,4.25,6.74,8.58,10,12.95s6.36,8.87,9.32,13.46l-.09.07c-3.54-4.16-6.9-8.46-10.2-12.8s-6.44-8.8-9.52-13.31c-1.55-2.24-3.12-4.47-4.78-6.64s-3.42-4.25-5.11-6.39c-3.31-4.33-6.48-8.77-9.42-13.38Z" style="fill:#a6a6a6"></path><path d="M99,350.76c4.22,3.47,8.26,7.13,12.17,10.94,1.93,1.93,3.8,3.92,5.75,5.82s4,3.73,6,5.53c4.11,3.59,8.13,7.28,12.09,11s7.8,7.63,11.52,11.63l-.08.08c-4.21-3.48-8.27-7.13-12.27-10.83s-7.87-7.55-11.69-11.45c-1.91-1.94-3.85-3.86-5.85-5.71s-4.11-3.59-6.15-5.41c-4-3.68-7.9-7.51-11.6-11.53Z" style="fill:#a6a6a6"></path><path d="M92,359.7c4.76,2.68,9.38,5.58,13.89,8.65,2.23,1.57,4.41,3.21,6.67,4.74s4.57,3,6.9,4.4c4.67,2.82,9.26,5.75,13.82,8.75s9,6.16,13.36,9.46l-.06.09c-4.76-2.7-9.38-5.59-14-8.54s-9.06-6.07-13.49-9.25c-2.23-1.58-4.47-3.13-6.76-4.6s-4.67-2.83-7-4.26c-4.6-2.93-9.09-6-13.43-9.35Z" style="fill:#a6a6a6"></path><path d="M86.52,369.73c5.16,1.81,10.21,3.87,15.18,6.11,2.47,1.16,4.91,2.39,7.39,3.51s5,2.14,7.56,3.13c5.09,2,10.13,4.06,15.13,6.22s9.94,4.5,14.8,7l-.05.11c-5.14-1.84-10.2-3.88-15.23-6s-10-4.4-14.9-6.76c-2.46-1.17-4.94-2.31-7.45-3.36s-5.09-2-7.63-3c-5-2.08-10-4.35-14.85-6.87Z" style="fill:#a6a6a6"></path><path d="M82.91,380.55c5.4.89,10.73,2,16,3.38,2.64.71,5.25,1.5,7.89,2.17s5.32,1.24,8,1.77c5.35,1.05,10.68,2.24,16,3.5s10.57,2.71,15.79,4.32l0,.11c-5.38-.91-10.72-2.05-16-3.25s-10.59-2.6-15.84-4.07c-2.63-.73-5.27-1.42-7.93-2s-5.35-1.06-8-1.61c-5.32-1.18-10.6-2.56-15.81-4.19Z" style="fill:#a6a6a6"></path><path d="M81.24,391.83c5.47-.06,10.92.15,16.36.55,2.71.24,5.42.57,8.14.77s5.45.29,8.18.36c5.45.1,10.9.35,16.34.67s10.88.83,16.3,1.51v.11c-5.46,0-10.91-.15-16.36-.42s-10.88-.72-16.31-1.25c-2.72-.26-5.43-.48-8.16-.61s-5.45-.12-8.18-.2c-5.45-.24-10.88-.67-16.31-1.37Z" style="fill:#a6a6a6"></path><path d="M81.55,403.23c5.38-1,10.78-1.75,16.21-2.3,2.71-.23,5.44-.38,8.15-.65s5.42-.66,8.11-1.07c5.39-.84,10.8-1.55,16.22-2.18s10.85-1.07,16.31-1.34v.11c-5.37,1-10.77,1.75-16.18,2.43s-10.84,1.18-16.29,1.6c-2.71.21-5.43.47-8.13.81s-5.4.84-8.1,1.23c-5.4.71-10.83,1.23-16.29,1.48Z" style="fill:#a6a6a6"></path><path d="M83.84,414.41c5.12-1.93,10.31-3.6,15.56-5.08,2.63-.7,5.29-1.32,7.92-2.06s5.21-1.59,7.8-2.46c5.16-1.77,10.37-3.4,15.59-5s10.5-2.94,15.83-4.15l0,.11c-5.12,1.9-10.31,3.59-15.51,5.2s-10.48,3.05-15.76,4.4c-2.64.69-5.27,1.41-7.88,2.22s-5.16,1.76-7.75,2.61c-5.2,1.64-10.46,3.09-15.79,4.29Z" style="fill:#a6a6a6"></path><path d="M88,425c4.7-2.78,9.52-5.33,14.43-7.7,2.48-1.15,5-2.22,7.45-3.41s4.86-2.46,7.25-3.77c4.78-2.64,9.62-5.15,14.49-7.6s9.84-4.72,14.87-6.84l.05.1c-4.71,2.77-9.53,5.33-14.38,7.82s-9.78,4.82-14.75,7.07c-2.48,1.14-5,2.3-7.37,3.55s-4.78,2.63-7.18,3.93c-4.84,2.51-9.77,4.85-14.81,7Z" style="fill:#a6a6a6"></path><path d="M94,434.73c4.15-3.56,8.46-6.9,12.88-10.09,2.24-1.56,4.52-3.06,6.74-4.65s4.35-3.27,6.48-5q6.38-5.13,13-10c4.41-3.21,8.86-6.36,13.45-9.32l.07.09c-4.16,3.54-8.46,6.9-12.8,10.2s-8.8,6.44-13.31,9.52c-2.24,1.55-4.47,3.12-6.64,4.78s-4.25,3.42-6.39,5.11c-4.33,3.31-8.77,6.48-13.37,9.42Z" style="fill:#a6a6a6"></path><path d="M101.58,443.26c3.46-4.22,7.13-8.26,10.93-12.17,1.93-1.93,3.92-3.8,5.83-5.75s3.72-4,5.52-6c3.59-4.11,7.28-8.13,11-12.09s7.63-7.8,11.64-11.52l.08.08c-3.49,4.21-7.14,8.27-10.84,12.27s-7.55,7.87-11.45,11.69c-1.94,1.91-3.86,3.85-5.71,5.85s-3.59,4.11-5.4,6.15c-3.69,4-7.52,7.9-11.54,11.6Z" style="fill:#a6a6a6"></path><path d="M110.51,450.35c2.68-4.76,5.59-9.38,8.65-13.89,1.57-2.23,3.21-4.41,4.74-6.67s3-4.57,4.4-6.9c2.82-4.67,5.75-9.26,8.75-13.82s6.16-9,9.46-13.36l.09.06c-2.7,4.76-5.59,9.38-8.54,14s-6.06,9.06-9.24,13.49c-1.58,2.23-3.14,4.47-4.61,6.76s-2.83,4.67-4.26,7c-2.93,4.6-6,9.09-9.34,13.43Z" style="fill:#a6a6a6"></path><path d="M120.54,455.78c1.81-5.16,3.87-10.21,6.11-15.18,1.16-2.47,2.39-4.91,3.51-7.39s2.14-5,3.13-7.56c2-5.09,4.06-10.13,6.22-15.13s4.5-9.94,7-14.8l.11,0c-1.83,5.14-3.88,10.2-6,15.23s-4.4,10-6.76,14.9c-1.17,2.46-2.31,4.94-3.36,7.45s-2,5.09-3,7.63c-2.09,5-4.36,10-6.87,14.85Z" style="fill:#a6a6a6"></path><path d="M131.36,459.39c.89-5.4,2-10.73,3.38-16,.71-2.64,1.5-5.25,2.18-7.89s1.23-5.31,1.77-8c1.05-5.35,2.23-10.68,3.49-16s2.71-10.57,4.32-15.79l.11,0c-.91,5.38-2,10.72-3.25,16s-2.6,10.59-4.07,15.84c-.73,2.63-1.42,5.27-2,7.93s-1.06,5.35-1.61,8c-1.18,5.32-2.55,10.6-4.19,15.81Z" style="fill:#a6a6a6"></path><path d="M142.65,461.06c-.07-5.47.14-10.92.54-16.36.25-2.71.57-5.42.77-8.14s.3-5.45.36-8.18c.11-5.45.35-10.9.67-16.34s.83-10.88,1.51-16.3h.11c0,5.46-.15,10.91-.41,16.36s-.72,10.88-1.26,16.31c-.26,2.72-.48,5.43-.61,8.16s-.11,5.45-.19,8.18c-.24,5.45-.68,10.88-1.38,16.31Z" style="fill:#a6a6a6"></path><path d="M154.05,460.75c-1-5.38-1.75-10.78-2.3-16.21-.24-2.71-.39-5.44-.66-8.15s-.66-5.42-1.07-8.11c-.84-5.39-1.55-10.8-2.18-16.22s-1.07-10.85-1.34-16.31h.11c1,5.37,1.75,10.77,2.43,16.18s1.18,10.84,1.6,16.29c.22,2.71.47,5.43.82,8.13s.83,5.4,1.23,8.1c.7,5.4,1.22,10.83,1.47,16.29Z" style="fill:#a6a6a6"></path><path d="M165.22,458.46c-1.93-5.12-3.59-10.31-5.08-15.56-.7-2.63-1.32-5.29-2.06-7.92s-1.59-5.21-2.46-7.8c-1.77-5.16-3.4-10.36-5-15.59s-2.94-10.5-4.16-15.83l.11,0c1.91,5.12,3.59,10.31,5.21,15.51s3,10.48,4.39,15.76c.69,2.64,1.41,5.27,2.22,7.88s1.76,5.16,2.62,7.75c1.63,5.2,3.09,10.46,4.28,15.79Z" style="fill:#a6a6a6"></path><path d="M175.83,454.26c-2.79-4.7-5.33-9.52-7.7-14.43-1.15-2.48-2.23-5-3.41-7.44s-2.47-4.87-3.78-7.26c-2.64-4.78-5.15-9.62-7.59-14.49s-4.72-9.84-6.84-14.87l.1,0c2.76,4.71,5.32,9.53,7.82,14.38s4.81,9.78,7.06,14.75c1.14,2.48,2.31,4.95,3.56,7.37s2.62,4.78,3.92,7.18c2.51,4.84,4.86,9.77,7,14.81Z" style="fill:#a6a6a6"></path><path d="M185.54,448.29c-3.56-4.15-6.9-8.45-10.09-12.88-1.56-2.24-3-4.52-4.65-6.74s-3.27-4.35-5-6.48q-5.13-6.37-10-13c-3.21-4.41-6.35-8.86-9.32-13.45l.09-.07c3.54,4.16,6.9,8.46,10.2,12.8s6.44,8.8,9.52,13.31c1.55,2.24,3.13,4.47,4.78,6.64s3.42,4.25,5.11,6.39c3.32,4.33,6.48,8.77,9.43,13.37Z" style="fill:#a6a6a6"></path><path d="M194.08,440.72c-4.23-3.46-8.27-7.13-12.18-10.93-1.92-1.93-3.79-3.92-5.75-5.83s-4-3.72-6-5.52c-4.11-3.59-8.12-7.28-12.09-11s-7.8-7.63-11.51-11.64l.08-.08c4.21,3.49,8.26,7.14,12.26,10.84s7.87,7.55,11.69,11.45c1.91,1.94,3.85,3.86,5.86,5.71s4.1,3.59,6.14,5.4c4,3.69,7.9,7.52,11.6,11.54Z" style="fill:#a6a6a6"></path><path d="M201.17,431.79c-4.77-2.68-9.38-5.59-13.89-8.65-2.23-1.57-4.42-3.21-6.67-4.74s-4.57-3-6.9-4.4c-4.68-2.82-9.27-5.75-13.83-8.75s-9-6.16-13.35-9.46l.06-.09c4.75,2.7,9.37,5.59,14,8.54s9.06,6.06,13.5,9.24c2.22,1.58,4.46,3.14,6.76,4.61s4.67,2.83,7,4.26c4.59,2.93,9.09,6,13.43,9.34Z" style="fill:#a6a6a6"></path><path d="M206.6,421.76c-5.16-1.81-10.21-3.87-15.18-6.11-2.48-1.16-4.91-2.39-7.4-3.51s-5-2.14-7.56-3.13c-5.09-2-10.12-4.06-15.13-6.22s-9.93-4.5-14.8-7l.05-.11c5.15,1.83,10.2,3.88,15.23,6s10,4.4,14.9,6.76c2.46,1.17,4.94,2.31,7.46,3.36s5.08,2,7.62,3c5,2.09,10,4.36,14.85,6.87Z" style="fill:#a6a6a6"></path><path d="M210.2,410.94c-5.39-.89-10.72-2-16-3.38-2.63-.71-5.25-1.5-7.89-2.18s-5.31-1.23-8-1.77c-5.35-1.05-10.67-2.23-16-3.49s-10.56-2.71-15.79-4.32l0-.11c5.39.91,10.72,2,16,3.25s10.59,2.6,15.85,4.07c2.63.73,5.26,1.42,7.92,2s5.36,1.06,8,1.61c5.32,1.18,10.6,2.55,15.82,4.19Z" style="fill:#a6a6a6"></path><path d="M211.87,399.65c-5.46.07-10.91-.14-16.35-.54-2.72-.25-5.43-.57-8.15-.77s-5.44-.3-8.17-.36c-5.46-.11-10.91-.35-16.35-.67s-10.87-.83-16.3-1.51v-.11c5.46,0,10.92.15,16.36.41s10.88.73,16.31,1.26c2.72.26,5.44.48,8.16.61s5.46.11,8.18.19c5.45.24,10.89.68,16.31,1.38Z" style="fill:#a6a6a6"></path><path d="M211.56,388.25c-5.37,1-10.78,1.75-16.2,2.3-2.72.24-5.45.39-8.16.66s-5.41.66-8.11,1.07c-5.39.84-10.8,1.55-16.21,2.18s-10.86,1.07-16.32,1.34v-.11c5.37-1,10.78-1.75,16.19-2.43s10.84-1.18,16.28-1.6c2.72-.22,5.43-.47,8.14-.82s5.39-.83,8.09-1.22c5.41-.71,10.84-1.23,16.3-1.48Z" style="fill:#a6a6a6"></path><path d="M209.27,377.08c-5.12,1.93-10.31,3.59-15.56,5.08-2.63.7-5.29,1.32-7.92,2.06s-5.21,1.59-7.8,2.46c-5.16,1.77-10.36,3.4-15.59,5s-10.5,2.94-15.83,4.16l0-.11c5.12-1.91,10.31-3.59,15.52-5.21s10.47-3,15.76-4.39c2.64-.69,5.27-1.41,7.87-2.22s5.17-1.76,7.75-2.62c5.21-1.63,10.46-3.09,15.8-4.28Z" style="fill:#a6a6a6"></path><path d="M205.08,366.47c-4.71,2.79-9.53,5.33-14.44,7.7-2.47,1.15-5,2.23-7.44,3.41s-4.86,2.47-7.26,3.78c-4.78,2.64-9.62,5.15-14.49,7.59s-9.83,4.72-14.87,6.84l-.05-.1c4.71-2.76,9.53-5.32,14.38-7.82s9.78-4.81,14.75-7.06c2.49-1.14,5-2.31,7.37-3.56s4.79-2.62,7.19-3.92c4.83-2.51,9.76-4.86,14.81-7Z" style="fill:#a6a6a6"></path><path d="M199.1,356.76c-4.14,3.56-8.45,6.9-12.88,10.09-2.23,1.56-4.52,3-6.73,4.65s-4.36,3.27-6.49,5c-4.25,3.42-8.58,6.74-12.95,10s-8.87,6.36-13.46,9.32l-.07-.09c4.16-3.54,8.46-6.9,12.8-10.2s8.8-6.44,13.31-9.52c2.24-1.55,4.47-3.13,6.64-4.78s4.25-3.42,6.39-5.11c4.33-3.32,8.77-6.48,13.38-9.42Z" style="fill:#a6a6a6"></path><path d="M191.54,348.22c-3.47,4.23-7.13,8.27-10.94,12.18-1.93,1.92-3.92,3.79-5.82,5.75s-3.73,4-5.53,6c-3.59,4.11-7.28,8.12-11,12.09s-7.63,7.8-11.63,11.51l-.08-.08c3.48-4.21,7.13-8.26,10.83-12.26s7.55-7.87,11.45-11.69c1.94-1.91,3.86-3.85,5.71-5.86s3.59-4.1,5.41-6.14c3.68-4,7.51-7.9,11.53-11.6Z" style="fill:#a6a6a6"></path><path d="M182.6,341.13C179.92,345.9,177,350.51,174,355c-1.57,2.24-3.21,4.42-4.74,6.67s-3,4.57-4.4,6.9c-2.82,4.68-5.75,9.27-8.75,13.83s-6.16,9-9.46,13.35l-.09-.06c2.7-4.75,5.59-9.37,8.54-14s6.07-9.06,9.25-13.5c1.58-2.22,3.13-4.46,4.6-6.76s2.83-4.66,4.26-7c2.93-4.59,6-9.09,9.35-13.43Z" style="fill:#a6a6a6"></path><path d="M172.57,335.71c-1.81,5.15-3.87,10.2-6.11,15.18-1.15,2.47-2.39,4.9-3.51,7.39s-2.14,5-3.13,7.56c-2,5.09-4.06,10.12-6.22,15.13s-4.5,9.93-7,14.8l-.11,0c1.84-5.15,3.88-10.2,6-15.23s4.4-10,6.76-14.9c1.17-2.46,2.31-4.94,3.36-7.46s2-5.08,3-7.62c2.08-5,4.35-10,6.87-14.85Z" style="fill:#a6a6a6"></path><path d="M161.75,332.1c-.89,5.39-2,10.72-3.38,16-.71,2.63-1.5,5.25-2.17,7.89s-1.24,5.31-1.77,8c-1.05,5.35-2.24,10.67-3.5,16s-2.71,10.57-4.32,15.79l-.11,0c.91-5.39,2.05-10.72,3.25-16s2.6-10.59,4.07-15.85c.73-2.63,1.42-5.26,2-7.92s1.06-5.36,1.61-8c1.18-5.32,2.56-10.6,4.19-15.82Z" style="fill:#a6a6a6"></path><circle cx="145.77" cy="395.74" r="16.37" transform="matrix(0.97, -0.25, 0.25, 0.97, -94.99, 49.48)" style="fill:#a6a6a6"></circle><path d="M145.77,465.82a70.08,70.08,0,1,1,70.07-70.08A70.16,70.16,0,0,1,145.77,465.82Zm0-132.22a62.14,62.14,0,1,0,62.14,62.14A62.22,62.22,0,0,0,145.77,333.6Z" style="fill:#263238"></path><path d="M381.88,330.43c.06,5.46-.15,10.91-.55,16.35-.24,2.72-.57,5.43-.77,8.15s-.29,5.45-.35,8.17c-.11,5.46-.36,10.91-.67,16.35s-.84,10.88-1.52,16.3h-.11c0-5.46.15-10.91.42-16.36s.72-10.88,1.26-16.31c.25-2.72.48-5.44.6-8.16s.12-5.46.2-8.18c.24-5.45.67-10.89,1.38-16.31Z" style="fill:#a6a6a6"></path><path d="M370.48,330.74c1,5.37,1.75,10.78,2.3,16.2.23,2.72.38,5.45.65,8.16s.66,5.41,1.07,8.11c.85,5.39,1.55,10.8,2.18,16.22s1.07,10.85,1.34,16.31h-.11c-1-5.37-1.74-10.78-2.43-16.19s-1.18-10.84-1.59-16.28c-.22-2.72-.47-5.43-.82-8.14s-.83-5.39-1.23-8.09c-.71-5.41-1.23-10.83-1.47-16.3Z" style="fill:#a6a6a6"></path><path d="M359.3,333c1.93,5.12,3.6,10.31,5.08,15.56.7,2.63,1.33,5.29,2.07,7.91s1.58,5.22,2.46,7.81c1.76,5.16,3.4,10.36,5,15.59s2.94,10.5,4.15,15.83l-.11,0c-1.9-5.12-3.59-10.31-5.2-15.52s-3-10.47-4.4-15.76c-.69-2.64-1.41-5.27-2.22-7.87s-1.76-5.17-2.61-7.75c-1.64-5.21-3.09-10.46-4.28-15.8Z" style="fill:#a6a6a6"></path><path d="M348.7,337.22c2.78,4.71,5.33,9.53,7.7,14.44,1.15,2.47,2.22,5,3.41,7.44s2.47,4.86,3.77,7.26c2.64,4.78,5.15,9.62,7.6,14.49s4.72,9.83,6.84,14.87l-.1,0c-2.77-4.71-5.33-9.53-7.82-14.38s-4.82-9.78-7.07-14.75c-1.13-2.49-2.3-4.95-3.55-7.37s-2.63-4.78-3.92-7.19c-2.52-4.83-4.86-9.76-7-14.81Z" style="fill:#a6a6a6"></path><path d="M339,343.2c3.56,4.14,6.9,8.45,10.09,12.88,1.56,2.23,3.06,4.52,4.65,6.73s3.28,4.36,5,6.49c3.43,4.25,6.74,8.58,10,12.95s6.36,8.87,9.32,13.46l-.09.07c-3.54-4.16-6.9-8.46-10.2-12.8s-6.44-8.8-9.52-13.31c-1.55-2.24-3.12-4.47-4.78-6.64s-3.41-4.25-5.11-6.39c-3.31-4.33-6.48-8.77-9.42-13.38Z" style="fill:#a6a6a6"></path><path d="M330.45,350.76c4.22,3.47,8.27,7.13,12.17,10.94,1.93,1.93,3.8,3.92,5.75,5.82s4,3.73,6,5.53c4.11,3.59,8.13,7.28,12.09,11s7.8,7.63,11.52,11.63l-.08.08c-4.21-3.48-8.26-7.13-12.27-10.83S357.79,377.4,354,373.5c-1.92-1.94-3.86-3.86-5.86-5.71S344,364.2,342,362.38c-4-3.68-7.9-7.51-11.6-11.53Z" style="fill:#a6a6a6"></path><path d="M323.36,359.7c4.76,2.68,9.38,5.58,13.89,8.65,2.23,1.57,4.42,3.21,6.67,4.74s4.57,3,6.9,4.4c4.67,2.82,9.27,5.75,13.82,8.75s9,6.16,13.36,9.46l-.06.09c-4.75-2.7-9.38-5.59-14-8.54s-9.07-6.07-13.5-9.25c-2.23-1.58-4.47-3.13-6.76-4.6s-4.67-2.83-7-4.26c-4.6-2.93-9.09-6-13.43-9.35Z" style="fill:#a6a6a6"></path><path d="M317.93,369.73c5.16,1.81,10.21,3.87,15.18,6.11,2.47,1.16,4.91,2.39,7.39,3.51s5,2.14,7.56,3.13c5.09,2,10.13,4.06,15.13,6.22s9.94,4.5,14.8,7l0,.11c-5.15-1.84-10.21-3.88-15.24-6s-10-4.4-14.9-6.76c-2.46-1.17-4.94-2.31-7.45-3.36s-5.09-2-7.62-3c-5-2.08-10-4.35-14.86-6.87Z" style="fill:#a6a6a6"></path><path d="M314.32,380.55c5.4.89,10.73,2,16,3.38,2.64.71,5.25,1.5,7.9,2.17s5.31,1.24,8,1.77c5.36,1.05,10.68,2.24,16,3.5s10.57,2.71,15.79,4.32l0,.11c-5.38-.91-10.72-2.05-16-3.25s-10.59-2.6-15.84-4.07c-2.63-.73-5.27-1.42-7.93-2s-5.35-1.06-8-1.61c-5.33-1.18-10.61-2.56-15.82-4.19Z" style="fill:#a6a6a6"></path><path d="M312.65,391.83c5.47-.06,10.92.15,16.36.55,2.71.24,5.43.57,8.15.77s5.44.29,8.17.36c5.45.1,10.9.35,16.34.67s10.88.83,16.3,1.51v.11c-5.46,0-10.91-.15-16.36-.42s-10.88-.72-16.31-1.25c-2.72-.26-5.43-.48-8.16-.61s-5.45-.12-8.18-.2c-5.45-.24-10.88-.67-16.3-1.37Z" style="fill:#a6a6a6"></path><path d="M313,403.23c5.37-1,10.77-1.75,16.2-2.3,2.71-.23,5.44-.38,8.15-.65s5.42-.66,8.11-1.07c5.4-.84,10.8-1.55,16.22-2.18S372.5,396,378,395.69v.11c-5.37,1-10.77,1.75-16.18,2.43s-10.84,1.18-16.28,1.6c-2.72.21-5.44.47-8.14.81s-5.4.84-8.09,1.23c-5.41.71-10.84,1.23-16.3,1.48Z" style="fill:#a6a6a6"></path><path d="M315.25,414.41c5.12-1.93,10.31-3.6,15.56-5.08,2.64-.7,5.3-1.32,7.92-2.06s5.22-1.59,7.8-2.46c5.16-1.77,10.37-3.4,15.59-5s10.5-2.94,15.83-4.15l0,.11c-5.12,1.9-10.31,3.59-15.51,5.2s-10.48,3.05-15.76,4.4c-2.64.69-5.27,1.41-7.88,2.22s-5.16,1.76-7.75,2.61c-5.2,1.64-10.46,3.09-15.79,4.29Z" style="fill:#a6a6a6"></path><path d="M319.45,425c4.7-2.78,9.52-5.33,14.44-7.7,2.47-1.15,5-2.22,7.44-3.41s4.86-2.46,7.25-3.77c4.78-2.64,9.62-5.15,14.49-7.6s9.84-4.72,14.87-6.84l.05.1c-4.71,2.77-9.53,5.33-14.37,7.82s-9.79,4.82-14.76,7.07c-2.48,1.14-4.95,2.3-7.37,3.55s-4.78,2.63-7.18,3.93c-4.84,2.51-9.76,4.85-14.81,7Z" style="fill:#a6a6a6"></path><path d="M325.42,434.73c4.15-3.56,8.46-6.9,12.88-10.09,2.24-1.56,4.52-3.06,6.74-4.65s4.36-3.27,6.49-5c4.24-3.42,8.57-6.74,13-10s8.86-6.36,13.45-9.32l.07.09c-4.16,3.54-8.46,6.9-12.8,10.2s-8.8,6.44-13.3,9.52c-2.25,1.55-4.48,3.12-6.64,4.78s-4.26,3.42-6.4,5.11c-4.32,3.31-8.77,6.48-13.37,9.42Z" style="fill:#a6a6a6"></path><path d="M333,443.26c3.46-4.22,7.13-8.26,10.93-12.17,1.93-1.93,3.92-3.8,5.83-5.75s3.72-4,5.52-6c3.59-4.11,7.28-8.13,11-12.09s7.63-7.8,11.64-11.52l.08.08c-3.48,4.21-7.13,8.27-10.84,12.27s-7.54,7.87-11.45,11.69c-1.94,1.91-3.86,3.85-5.7,5.85s-3.6,4.11-5.41,6.15c-3.69,4-7.52,7.9-11.54,11.6Z" style="fill:#a6a6a6"></path><path d="M341.92,450.35c2.68-4.76,5.59-9.38,8.66-13.89,1.56-2.23,3.2-4.41,4.74-6.67s3-4.57,4.39-6.9c2.82-4.67,5.76-9.26,8.75-13.82s6.16-9,9.46-13.36l.1.06c-2.7,4.76-5.59,9.38-8.55,14s-6.06,9.06-9.24,13.49c-1.58,2.23-3.13,4.47-4.61,6.76s-2.82,4.67-4.26,7c-2.93,4.6-6,9.09-9.34,13.43Z" style="fill:#a6a6a6"></path><path d="M352,455.78c1.82-5.16,3.88-10.21,6.11-15.18,1.16-2.47,2.39-4.91,3.51-7.39s2.14-5,3.13-7.56c2-5.09,4.06-10.13,6.22-15.13s4.5-9.94,7-14.8l.1,0c-1.83,5.14-3.88,10.2-6,15.23s-4.4,10-6.76,14.9c-1.17,2.46-2.31,4.94-3.36,7.45s-2,5.09-3,7.63c-2.09,5-4.36,10-6.87,14.85Z" style="fill:#a6a6a6"></path><path d="M362.77,459.39c.89-5.4,2-10.73,3.39-16,.7-2.64,1.5-5.25,2.17-7.89s1.23-5.31,1.77-8c1-5.35,2.24-10.68,3.5-16s2.7-10.57,4.31-15.79l.11,0c-.91,5.38-2,10.72-3.25,16s-2.6,10.59-4.07,15.84c-.72,2.63-1.42,5.27-2,7.93s-1.07,5.35-1.62,8c-1.18,5.32-2.55,10.6-4.19,15.81Z" style="fill:#a6a6a6"></path><path d="M374.06,461.06c-.06-5.47.14-10.92.55-16.36.24-2.71.56-5.42.77-8.14s.29-5.45.35-8.18c.11-5.45.35-10.9.67-16.34s.83-10.88,1.51-16.3H378c0,5.46-.15,10.91-.41,16.36s-.72,10.88-1.26,16.31c-.26,2.72-.48,5.43-.61,8.16s-.11,5.45-.19,8.18c-.24,5.45-.68,10.88-1.38,16.31Z" style="fill:#a6a6a6"></path><path d="M385.46,460.75c-1-5.38-1.75-10.78-2.3-16.21-.24-2.71-.39-5.44-.66-8.15s-.66-5.42-1.07-8.11c-.84-5.39-1.54-10.8-2.18-16.22s-1.07-10.85-1.34-16.31H378c1,5.37,1.75,10.77,2.44,16.18s1.17,10.84,1.59,16.29c.22,2.71.47,5.43.82,8.13s.83,5.4,1.23,8.1c.71,5.4,1.22,10.83,1.47,16.29Z" style="fill:#a6a6a6"></path><path d="M396.63,458.46c-1.93-5.12-3.59-10.31-5.08-15.56-.7-2.63-1.32-5.29-2.06-7.92s-1.59-5.21-2.46-7.8c-1.77-5.16-3.4-10.36-5-15.59s-2.94-10.5-4.16-15.83l.11,0c1.91,5.12,3.59,10.31,5.21,15.51s3,10.48,4.39,15.76c.69,2.64,1.41,5.27,2.22,7.88s1.76,5.16,2.62,7.75c1.64,5.2,3.09,10.46,4.28,15.79Z" style="fill:#a6a6a6"></path><path d="M407.24,454.26c-2.79-4.7-5.33-9.52-7.7-14.43-1.15-2.48-2.23-5-3.41-7.44s-2.47-4.87-3.78-7.26q-3.94-7.17-7.59-14.49c-2.4-4.9-4.72-9.84-6.84-14.87l.1,0c2.76,4.71,5.32,9.53,7.82,14.38s4.81,9.78,7.07,14.75c1.13,2.48,2.3,4.95,3.55,7.37s2.63,4.78,3.92,7.18c2.52,4.84,4.86,9.77,7,14.81Z" style="fill:#a6a6a6"></path><path d="M417,448.29c-3.57-4.15-6.91-8.45-10.1-12.88-1.56-2.24-3.05-4.52-4.64-6.74s-3.28-4.35-5-6.48c-3.43-4.25-6.74-8.58-10-13s-6.35-8.86-9.32-13.45l.09-.07c3.54,4.16,6.9,8.46,10.2,12.8s6.44,8.8,9.52,13.31c1.55,2.24,3.13,4.47,4.78,6.64s3.42,4.25,5.11,6.39c3.32,4.33,6.48,8.77,9.43,13.37Z" style="fill:#a6a6a6"></path><path d="M425.49,440.72c-4.23-3.46-8.27-7.13-12.18-10.93-1.92-1.93-3.79-3.92-5.74-5.83s-4-3.72-6-5.52c-4.11-3.59-8.12-7.28-12.09-11s-7.79-7.63-11.51-11.64l.08-.08c4.21,3.49,8.26,7.14,12.26,10.84S398.15,414.09,402,418c1.92,1.94,3.85,3.86,5.86,5.71s4.1,3.59,6.14,5.4c4,3.69,7.91,7.52,11.61,11.54Z" style="fill:#a6a6a6"></path><path d="M432.58,431.79c-4.77-2.68-9.38-5.59-13.89-8.65-2.23-1.57-4.42-3.21-6.67-4.74s-4.57-3-6.9-4.4c-4.67-2.82-9.27-5.75-13.82-8.75s-9-6.16-13.36-9.46l.06-.09c4.75,2.7,9.38,5.59,14,8.54s9.06,6.06,13.5,9.24c2.22,1.58,4.46,3.14,6.76,4.61s4.67,2.83,7,4.26c4.6,2.93,9.09,6,13.43,9.34Z" style="fill:#a6a6a6"></path><path d="M438,421.76c-5.16-1.81-10.21-3.87-15.18-6.11-2.47-1.16-4.91-2.39-7.4-3.51s-5-2.14-7.55-3.13c-5.1-2-10.13-4.06-15.14-6.22s-9.93-4.5-14.79-7l0-.11c5.15,1.83,10.21,3.88,15.23,6s10,4.4,14.9,6.76c2.47,1.17,4.94,2.31,7.46,3.36s5.09,2,7.62,3c5,2.09,10,4.36,14.85,6.87Z" style="fill:#a6a6a6"></path><path d="M441.61,410.94c-5.39-.89-10.72-2-16-3.38-2.63-.71-5.25-1.5-7.89-2.18s-5.31-1.23-8-1.77c-5.35-1.05-10.67-2.23-16-3.49s-10.56-2.71-15.79-4.32l0-.11c5.39.91,10.72,2,16,3.25s10.59,2.6,15.85,4.07c2.63.73,5.27,1.42,7.93,2s5.35,1.06,8,1.61c5.32,1.18,10.6,2.55,15.82,4.19Z" style="fill:#a6a6a6"></path><path d="M443.28,399.65c-5.46.07-10.91-.14-16.35-.54-2.72-.25-5.43-.57-8.15-.77s-5.44-.3-8.17-.36c-5.46-.11-10.9-.35-16.35-.67s-10.87-.83-16.3-1.51v-.11c5.47,0,10.92.15,16.36.41s10.88.73,16.32,1.26c2.71.26,5.43.48,8.15.61s5.46.11,8.18.19c5.45.24,10.89.68,16.31,1.38Z" style="fill:#a6a6a6"></path><path d="M443,388.25c-5.37,1-10.78,1.75-16.2,2.3-2.72.24-5.45.39-8.16.66s-5.41.66-8.11,1.07c-5.39.84-10.8,1.55-16.21,2.18s-10.86,1.07-16.32,1.34v-.11c5.38-1,10.78-1.75,16.19-2.43s10.84-1.18,16.28-1.6c2.72-.22,5.43-.47,8.14-.82s5.39-.83,8.09-1.22c5.41-.71,10.84-1.23,16.3-1.48Z" style="fill:#a6a6a6"></path><path d="M440.68,377.08c-5.11,1.93-10.31,3.59-15.55,5.08-2.64.7-5.3,1.32-7.92,2.06s-5.22,1.59-7.8,2.46c-5.17,1.77-10.37,3.4-15.59,5s-10.51,2.94-15.84,4.16l0-.11c5.12-1.91,10.31-3.59,15.52-5.21s10.47-3,15.76-4.39c2.64-.69,5.27-1.41,7.87-2.22s5.17-1.76,7.76-2.62c5.2-1.63,10.45-3.09,15.79-4.28Z" style="fill:#a6a6a6"></path><path d="M436.49,366.47c-4.7,2.79-9.53,5.33-14.44,7.7-2.47,1.15-5,2.23-7.44,3.41s-4.86,2.47-7.26,3.78c-4.77,2.64-9.61,5.15-14.49,7.59S383,393.67,378,395.79l-.05-.1c4.72-2.76,9.53-5.32,14.38-7.82s9.79-4.81,14.76-7.06c2.48-1.14,4.94-2.31,7.36-3.56s4.79-2.62,7.19-3.92c4.84-2.51,9.76-4.86,14.81-7Z" style="fill:#a6a6a6"></path><path d="M430.52,356.76c-4.15,3.56-8.46,6.9-12.88,10.09-2.24,1.56-4.53,3-6.74,4.65s-4.36,3.27-6.49,5c-4.25,3.42-8.58,6.74-13,10s-8.87,6.36-13.46,9.32l-.07-.09c4.17-3.54,8.46-6.9,12.81-10.2s8.8-6.44,13.3-9.52c2.25-1.55,4.47-3.13,6.64-4.78s4.25-3.42,6.39-5.11c4.33-3.32,8.77-6.48,13.38-9.42Z" style="fill:#a6a6a6"></path><path d="M423,348.22c-3.47,4.23-7.13,8.27-10.94,12.18-1.93,1.92-3.92,3.79-5.82,5.75s-3.73,4-5.53,6c-3.59,4.11-7.28,8.12-11,12.09S382,392.07,378,395.78l-.08-.08c3.48-4.21,7.13-8.26,10.83-12.26s7.55-7.87,11.45-11.69c2-1.91,3.86-3.85,5.71-5.86s3.6-4.1,5.41-6.14c3.68-4,7.51-7.9,11.54-11.6Z" style="fill:#a6a6a6"></path><path d="M414,341.13c-2.68,4.77-5.58,9.38-8.65,13.89-1.57,2.24-3.21,4.42-4.74,6.67s-3,4.57-4.39,6.9c-2.82,4.68-5.76,9.27-8.76,13.83s-6.15,9-9.45,13.35l-.1-.06c2.7-4.75,5.59-9.37,8.54-14s6.07-9.06,9.25-13.5c1.58-2.22,3.13-4.46,4.6-6.76s2.83-4.66,4.26-7c2.93-4.59,6-9.09,9.35-13.43Z" style="fill:#a6a6a6"></path><path d="M404,335.71c-1.81,5.15-3.87,10.2-6.11,15.18-1.15,2.47-2.39,4.9-3.51,7.39s-2.13,5-3.13,7.56c-2,5.09-4.06,10.12-6.22,15.13s-4.5,9.93-7,14.8l-.1,0c1.83-5.15,3.87-10.2,6-15.23s4.4-10,6.76-14.9c1.18-2.46,2.31-4.94,3.37-7.46s2-5.08,3-7.62c2.09-5,4.35-10,6.87-14.85Z" style="fill:#a6a6a6"></path><path d="M393.16,332.1c-.89,5.39-2,10.72-3.38,16-.71,2.63-1.5,5.25-2.17,7.89s-1.23,5.31-1.77,8c-1,5.35-2.24,10.67-3.5,16s-2.71,10.57-4.32,15.79l-.11,0c.91-5.39,2-10.72,3.25-16s2.6-10.59,4.08-15.85c.72-2.63,1.41-5.26,2-7.92s1.06-5.36,1.61-8c1.19-5.32,2.56-10.6,4.19-15.82Z" style="fill:#a6a6a6"></path><path d="M393.55,395.74a16.37,16.37,0,1,1-16.37-16.36A16.37,16.37,0,0,1,393.55,395.74Z" style="fill:#a6a6a6"></path><path d="M377.18,465.82a70.08,70.08,0,1,1,70.07-70.08A70.16,70.16,0,0,1,377.18,465.82Zm0-132.22a62.14,62.14,0,1,0,62.14,62.14A62.22,62.22,0,0,0,377.18,333.6Z" style="fill:#263238"></path><path d="M263.35,401.42a16.29,16.29,0,1,1-16.29-16.28A16.28,16.28,0,0,1,263.35,401.42Z" style="fill:#a6a6a6"></path><polygon points="265.6 379.69 244.72 403.69 250.24 406.92 271.12 382.91 265.6 379.69 265.6 379.69" style="fill:#c7c7c7"></polygon><rect x="251.29" y="377.02" width="28.26" height="8.2" style="fill:#263238"></rect><path d="M330.91,293.17h-6.65c-2.92-9.95-7.76-24.75-9.57-31a2.93,2.93,0,1,1,5.64-1.59C321.88,266,328.31,284.2,330.91,293.17Z" style="fill:#FFC727"></path><path d="M315.66,266.38c-1.81-5.79-3.63-11.61-5.45-17.41-1.42.07-35.28,7.79-40.9,8.17-4.24.29-3.75-4.92.33-5.95,6.93-1.73,44.68-9.12,44.68-9.12.42,0,2.78,6.9,2.78,6.9,1.62,5.23,3,10.76,4.68,16C323.06,269,316.93,270.4,315.66,266.38Z" style="fill:#263238"></path><path d="M315.12,270.43l9.07-2.9c1.95-.62,1.12-3.71-.85-3.08l-9.07,2.9c-1.95.62-1.12,3.71.85,3.08Z" style="fill:#263238"></path><path d="M299.15,240.54h43.31a2.8,2.8,0,0,1,2.8,2.8v.2a2.8,2.8,0,0,1-2.8,2.8H299.15a0,0,0,0,1,0,0v-5.81A0,0,0,0,1,299.15,240.54Z" transform="translate(-42.67 70.39) rotate(-11.7)" style="fill:#263238"></path></g><g id="freepik--Character--inject-135"><path d="M265,345.67l-35.3,28.53c-6.78,5.41-12.62,10.28-15.41,13.09l0,0a6.34,6.34,0,0,0-1.7,2.17s0,.05,0,.08c.25,3.11,42,58.51,44.06,59.95s6.39-4.44,6.48-7.88-6.39-31.81-6.39-31.81l35-28.83Z" style="fill:#f7a9a0"></path><path d="M260,424.65c1.6,7.45,3.16,15.28,3.13,17-.1,3.44-4.38,9.34-6.48,7.89s-43.81-56.85-44.06-60c0,0,0,0,0-.08,0-.36.64-1.12,1.7-2.17,0,0,0,0,0-.05,2.26-2.27,6.54-5.9,11.7-10.09,1.19-1,2.44-2,3.71-3,0,0,35.3-28.53,35.3-28.53L291.69,381l-35,28.83s1.65,7.2,3.27,14.78Z" style="fill:#f7a9a0"></path><path d="M257.15,449.31c-2.13-1.47-44-57.64-44.28-60.79-.11-1.19,7.72-7.78,17.4-15.46l.31-.24L258,408.75l-.63.45s6.43,28.67,6.32,32.16S259.26,450.78,257.15,449.31Z" style="fill:#FFC727"></path><path d="M258.85,447c-6.83-9.64-35.3-47.88-42.79-56.89-.06-.07-.12,0-.06.05,6.56,9.7,35.34,47.71,42.7,57C258.85,447.36,259,447.25,258.85,447Z" style="fill:#fff"></path><path d="M259.56,412.32c-2.08-4.24-6.05-8.37-10.83-9.24-.19,0-.23.23-.1.32a65.67,65.67,0,0,1,10.45,9.26A.3.3,0,0,0,259.56,412.32Z" style="fill:#fff"></path><path d="M260,416.22c-2.08-4.24-6.06-8.37-10.84-9.24-.18,0-.23.23-.1.32a65.25,65.25,0,0,1,10.46,9.26A.3.3,0,0,0,260,416.22Z" style="fill:#fff"></path><path d="M260.34,420.12c-2.09-4.25-6.06-8.38-10.84-9.24-.19,0-.23.23-.1.32a64.75,64.75,0,0,1,10.45,9.26A.3.3,0,0,0,260.34,420.12Z" style="fill:#fff"></path><path d="M259.8,448.66c.36,1.29-3.17,3.6-4,3.07s-46.24-62-46.79-63.17,3.48-3.62,4.57-2.56S259.8,448.66,259.8,448.66Z" style="fill:#FFC727"></path><path d="M259.8,448.66c.36,1.29-3.17,3.6-4,3.07s-46.24-62-46.79-63.17,3.48-3.62,4.57-2.56S259.8,448.66,259.8,448.66Z" style="opacity:0.30000000000000004"></path><path d="M231.21,386.79c-1-5.59-9.69-4.05-8.69,1.56S232.21,392.39,231.21,386.79Z" style="fill:#fff"></path><path d="M284.09,311.7c-2.5,12.34-53.71,61.59-53.71,61.59l35.7,41.21s72.71-72.58,68.91-99.85c-3.3-23.72-38.81-119.11-38.81-119.11h-41S286.55,299.56,284.09,311.7Z" style="fill:#37474f"></path><path d="M284.09,311.7c-2.5,12.34-53.71,61.59-53.71,61.59l35.7,41.21s72.71-72.58,68.91-99.85c-3.3-23.72-38.81-119.11-38.81-119.11h-41S286.55,299.56,284.09,311.7Z" style="fill:#263238"></path><path d="M270.14,404.7c-4.74-5.9-3.29-4.28-8.1-10.13-2.36-2.86-17.84-21.67-20.51-23.95-.05-.05-.15,0-.11.1,1.78,3,17.59,21.55,20,24.37,4.92,5.76,3.57,4.05,8.56,9.75C270.07,405,270.23,404.81,270.14,404.7Z" style="fill:#37474f"></path><path d="M289.18,305.68c-.59-3.08-1.25-6.15-1.91-9.22q-2-9.4-4.23-18.75-4.43-18.54-9.62-36.87c-3.49-12.26-7.19-24.5-11.44-36.52q-.78-2.23-1.61-4.45a.09.09,0,0,0-.18.06c3.69,12,7.48,24,10.93,36.16s6.62,24.19,9.62,36.37c1.51,6.12,2.91,12.26,4.28,18.4.68,3,1.33,6.05,2,9.07a63.53,63.53,0,0,1,1.72,9.35,14.2,14.2,0,0,1-2.41,8.42c-1.53,2.52-3.34,4.88-5.09,7.25-3.5,4.75-36.85,41.91-37.92,42.92-.08.08,0,.2.13.12,4.48-4,32.77-34.64,36.36-39.38q2.67-3.53,5.21-7.13a27.83,27.83,0,0,0,4.07-7.17A16.83,16.83,0,0,0,289.18,305.68Z" style="fill:#37474f"></path><path d="M289.09,195.53l-7.43,97.63c-7.1-33.42-26.45-97.63-26.45-97.63Z" style="fill:#37474f"></path><path d="M275,396.53s8.85,43.07,8.85,43.1c.12,8.67.37,16.28.88,20.2a.06.06,0,0,0,0,.06,6.05,6.05,0,0,0,.68,2.67s0,0,.05.05c2.61,1.72,71.95,2.79,74.38,2s.41-7.77-2.25-10-29-14.47-29-14.47l-9.28-43Z" style="fill:#f7a9a0"></path><path d="M360.29,464.69c-2.46.79-72.53-.3-75.17-2-1-.64-1.45-10.86-1.62-23.22V439l45.21.2,0,.76s26.64,12.42,29.34,14.63S362.76,463.92,360.29,464.69Z" style="fill:#FFC727"></path><path d="M359.54,462c-11.8-.47-59.47-1.27-71.18-.84-.1,0-.1.07,0,.08,11.69.72,59.37,1.13,71.18,1C359.79,462.15,359.79,462,359.54,462Z" style="fill:#fff"></path><path d="M332.48,440.2c-4.64-.94-10.33-.31-13.94,2.94-.14.13,0,.32.2.28a65.14,65.14,0,0,1,13.71-2.63A.3.3,0,0,0,332.48,440.2Z" style="fill:#fff"></path><path d="M335.8,442.27c-4.63-.94-10.33-.31-13.93,3-.14.12,0,.32.19.27a65.91,65.91,0,0,1,13.71-2.63A.3.3,0,0,0,335.8,442.27Z" style="fill:#fff"></path><path d="M339.13,444.35c-4.64-.94-10.34-.32-13.94,2.94-.14.13,0,.32.19.28a65.25,65.25,0,0,1,13.72-2.64A.29.29,0,0,0,339.13,444.35Z" style="fill:#fff"></path><path d="M361.4,462.2c1.25.5.91,4.71,0,5s-77.3-1.2-78.6-1.51-.74-5,.77-5.18S361.4,462.2,361.4,462.2Z" style="fill:#FFC727"></path><path d="M361.4,462.2c1.25.5.91,4.71,0,5s-77.3-1.2-78.6-1.51-.74-5,.77-5.18S361.4,462.2,361.4,462.2Z" style="opacity:0.30000000000000004"></path><path d="M294.94,447.07c-5-2.62-9.12,5.21-4.07,7.83S300,449.69,294.94,447.07Z" style="fill:#fff"></path><path d="M295.73,195.54A165.37,165.37,0,0,0,292.21,216c-.85,8.58-1.92,16.16-3.07,17.11s-7.77,5.22-9.95,6.55c0,0,20.19,61.2,25.4,81.6,7.55,29.57,25.64,118.3,25.64,118.3H282S267.38,355.07,261,326.91c-5.49-24.14-25.53-92.12-25.53-92.12-7.65-18.82,4.72-39.25,4.72-39.25S295.74,195.51,295.73,195.54Z" style="fill:#263238"></path><path d="M326,430.2c-7.14-.05-5.09-.14-12.24-.1-3.5,0-26.48.16-29.74.78-.07,0-.07.15,0,.16,3.27.52,26.25-.05,29.74-.14,7.15-.18,5.09-.21,12.24-.48C326.11,430.42,326.11,430.2,326,430.2Z" style="fill:#37474f"></path><path d="M292.56,230.67a92.6,92.6,0,0,0-13.3,8.9c-.16.13,0,.39.18.27,4.51-2.82,9.12-5.57,13.47-8.63A.32.32,0,0,0,292.56,230.67Z" style="fill:#37474f"></path><path d="M288.9,198.15c0-.16-.34-.16-.31,0a148.36,148.36,0,0,1,1.67,15.49c.16,2.52.3,16.57-4.17,16.24-.75-.06-1.23-.71-1.51-1.78a17.16,17.16,0,0,1-.08-4.3c0-3,0-5.9-.24-8.85a79.76,79.76,0,0,0-2.7-16.23.14.14,0,0,0-.27.06,151,151,0,0,1,2.17,22.65c0,3.66-.95,9.32,2.87,9.29s5-9.43,5-12A77.61,77.61,0,0,0,288.9,198.15Z" style="fill:#37474f"></path><path d="M286.26,230.25a23.24,23.24,0,0,0-.53,3,6.74,6.74,0,0,0,0,2.41.17.17,0,0,0,.31,0,8.09,8.09,0,0,0,.65-2.43c.19-.93.4-1.86.57-2.8A.49.49,0,0,0,286.26,230.25Z" style="fill:#37474f"></path><path d="M276.43,403.61c-.13-1.12-.28-2.23-.43-3.34-.31-2.14-.67-4.27-1-6.4-.66-4.28-1.4-8.55-2.16-12.82-1.51-8.51-3.26-17-5.1-25.44-1-4.78-2.25-9.49-3.52-14.21-.09-.33-.56-.17-.5.15.78,4.32,1.52,8.63,2.41,12.93s1.75,8.57,2.61,12.86c1.68,8.48,3.25,17,4.93,25.46.47,2.39.9,4.8,1.37,7.19.23,1.2.47,2.39.73,3.58s.62,2.35.82,3.55c0,.11.19.06.17-.05C276.58,405.93,276.56,404.76,276.43,403.61Z" style="fill:#37474f"></path><path d="M309.66,339.57c-1.6-8-3.77-15.89-5.94-23.75-4.38-15.81-9.54-31.4-14.68-47q-2.22-6.73-4.45-13.47c-.74-2.24-4.37-14.34-4.82-15.49a.1.1,0,0,0-.19.05c1,4.13,2.47,10.14,3.67,14.22s2.49,8,3.74,12c2.46,7.89,5,15.77,7.36,23.68,4.72,15.64,9.41,31.27,13.25,47.16,1.07,4.45,2.14,8.89,3.12,13.37s1.82,8.95,2.76,13.42c0,.12.23.09.21,0A245.31,245.31,0,0,0,309.66,339.57Z" style="fill:#37474f"></path><path d="M279.89,382.5c-2.57-14.89-5.66-29.7-9.07-44.41S263.56,308.6,259.35,294s-8.89-29-13.9-43.36A182,182,0,0,1,239.1,230c-1.55-7-2.89-18.28,4.36-32.77.06-.12-.34-.18-.4-.06-9.54,16.43-5.23,33.61-.94,46.61,2.34,7.12,4.85,14.18,7.16,21.31q3.57,11,6.83,22.06c4.32,14.63,8.33,29.34,11.92,44.17s6.78,29.75,9.6,44.74,5.2,30.15,7.6,45.27c.32,2,.56,3.94.82,5.92,0,.11.19.1.17,0C284.42,412.29,282.47,397.37,279.89,382.5Z" style="fill:#37474f"></path><path d="M248.33,217.43c1-.37,2-.46,3.06-.74a22.53,22.53,0,0,0,3.09-1.06,23.08,23.08,0,0,0,5.36-3.15,12.34,12.34,0,0,0,3.51-5c.44-1,2.37-6.48,2.39-6.52s.32-.08.31,0c-.05.73-1.15,5.4-1.53,6.57a12,12,0,0,1-3.52,5.76,18.92,18.92,0,0,1-6,3.35,20.37,20.37,0,0,1-3.43.9,9.29,9.29,0,0,1-3.28.17C248.14,217.72,248.2,217.48,248.33,217.43Z" style="fill:#37474f"></path><path d="M302.48,213.86a13.24,13.24,0,0,0-1.64-.56,9.61,9.61,0,0,1-1.69-.86,13.53,13.53,0,0,1-3-2.71,13.83,13.83,0,0,1-2.2-4.47c-.31-.93-1.15-5.95-1.16-6s-.17-.06-.16.06a42.74,42.74,0,0,0,.72,6.06,15,15,0,0,0,2.27,5.17,10.4,10.4,0,0,0,3.36,2.86,7.3,7.3,0,0,0,1.84.7,2.74,2.74,0,0,0,1.72,0C302.6,214.12,302.55,213.9,302.48,213.86Z" style="fill:#37474f"></path><path d="M271.17,152.49c11.82,19,26.43,39.31,38.31,41.49,11.3,2.06,33.7-22.59,37.73-35.41,1.05-3.37-21-16.89-23.83-14.35-5.25,4.8-14.27,19.31-16,19.09s-17.54-12.31-31.71-22.4C267.05,134.8,263,139.36,271.17,152.49Z" style="fill:#f7a9a0"></path><path d="M327.83,107.64l-13.29,30.47a1.15,1.15,0,0,0,.77,1.86l16.41,2.73a2.7,2.7,0,0,0,2.55-1.31l13.29-30.48c.5-.88.16-1.71-.76-1.86l-16.41-2.73A2.7,2.7,0,0,0,327.83,107.64Z" style="fill:#37474f"></path><path d="M329.78,107.94l-13.29,30.48a1.15,1.15,0,0,0,.77,1.86L333.67,143a2.66,2.66,0,0,0,2.55-1.31l13.3-30.47a1.16,1.16,0,0,0-.77-1.87l-16.41-2.72A2.71,2.71,0,0,0,329.78,107.94Z" style="fill:#455a64"></path><path d="M334,110.14a1.41,1.41,0,1,1-2.78-.52,1.41,1.41,0,1,1,2.78.52Z" style="fill:#263238"></path><path d="M350,140.91c-.63-8.49-2.1-10.57,1.17-18,2.14-4.88-.06-8.35-4.4-4.88-7.09,5.66-8.57,16.78-8,20.78Z" style="fill:#f7a9a0"></path><path d="M344.31,164.82s5.61-10.69,5.82-19.8c.15-6.3-1.05-20-17-30-3.79-2.36-10.86-3-6.07,3.06,3.4,4.33,6.87,6,8.39,8.93,0,0-9.09.21-11.31,4.1a83.41,83.41,0,0,0-5.06,10.57,16.43,16.43,0,0,0,1.9,1.12s-2,3.71,0,9.79Z" style="fill:#f7a9a0"></path><path d="M349.32,139c-2.12-2.54-6.68-7.84-11.93-10.88-5.83-3.38-18-8.32-20.41-4-1.79,3.17,2.67,5.46,2.67,5.46s-5.44-1-6.44,2.24c-.9,2.94,2.66,4.5,2.66,4.5s-3.41,0-3.74,3c-.39,3.6,6.81,3.07,9.56,7.07C322.31,147.25,349.32,139,349.32,139Z" style="fill:#f7a9a0"></path><path d="M334.85,134.86a26.87,26.87,0,0,0-15.08-5.35c-.14,0-.21.11-.08.13a66.39,66.39,0,0,1,15.13,5.27S334.88,134.88,334.85,134.86Z" style="fill:#263238"></path><path d="M331.27,140.64c-2.24-1.57-9.19-4.66-15.37-4.44-.14,0-.2.12-.08.14a70.26,70.26,0,0,1,15.42,4.36A0,0,0,0,0,331.27,140.64Z" style="fill:#263238"></path><path d="M318.6,148.05l23.46,21.46S321,197,310,195.07s-33.55-29.58-41.46-47.63c-5.47-12.5,1.82-11,9.78-5.23S307,162.1,307.88,161.8,318.6,148.05,318.6,148.05Z" style="fill:#FFC727"></path><g style="opacity:0.5"><path d="M318.6,148.05l23.46,21.46S321,197,310,195.07s-33.55-29.58-41.46-47.63c-5.47-12.5,1.82-11,9.78-5.23S307,162.1,307.88,161.8,318.6,148.05,318.6,148.05Z" style="fill:#fff"></path></g><path d="M318.68,192.5c-3.17,1.92-6.18,3-8.67,2.57-11-1.9-33.54-29.58-41.45-47.63-4.37-10-.61-11,5.13-8.11C287,154.75,307.27,178.43,318.68,192.5Z" style="fill:#FFC727"></path><path d="M335.29,173.87c-3.39-3-16.8-15.52-19.52-18.43-.19-.2-.11-.37.12-.18,10.36,8.58,16.34,15.41,19.51,18.47C335.48,173.81,335.37,173.94,335.29,173.87Z" style="fill:#263238"></path><path d="M235,197.26l62-1.42-6.64-18.34a19.18,19.18,0,0,0,1.3-16.18c-2-5.23-9.64-12.66-14.36-17.39-11.5-11.51-20-5.05-22.58-1.59C244.93,155.59,235,197.26,235,197.26Z" style="fill:#FFC727"></path><path d="M235,197.26l62-1.42-6.64-18.34a19.18,19.18,0,0,0,1.3-16.18c-2-5.23-9.64-12.66-14.36-17.39-11.5-11.51-20-5.05-22.58-1.59C244.93,155.59,235,197.26,235,197.26Z" style="fill:#fff;opacity:0.5"></path><path d="M272.51,177.1a53,53,0,0,1,7.86-.49c1.31,0,2.61.13,3.91.25.65.06,1.29.1,1.94.14a8.19,8.19,0,0,0,2-.08c.06,0,.08.08,0,.09a13.51,13.51,0,0,1-1.89.4,14.62,14.62,0,0,1-1.87.07c-1.32,0-2.65-.11-4-.14-2.68-.07-5.35-.15-8,0C272.4,177.32,272.39,177.11,272.51,177.1Z" style="fill:#263238"></path><path d="M266.72,180.8a58.64,58.64,0,0,1,6.26-1.75c1.06-.23,2.13-.4,3.2-.53.52-.07,1-.13,1.55-.18s1.14,0,1.71-.1c.06,0,.08.09,0,.09-.53.08-1.06.25-1.58.35l-1.59.32-3.18.65c-2.13.41-4.24.84-6.36,1.33C266.64,181,266.61,180.84,266.72,180.8Z" style="fill:#263238"></path><path d="M251.91,148c-14,24.08-33,73.86-36.77,81.77-2.56,5.36,25.49,19.5,26.68,15.6,1.52-5,19.16-63.88,20.43-92.6C262.84,139.48,256.37,140.32,251.91,148Z" style="fill:#f7a9a0"></path><path d="M242.58,242.7c-.65,4.86-4,14.66-6.42,16.15S220.8,260,214.29,260s-7.79-1.81-7.68-4,13.76-2.67,13.76-2.67-18.23,5.23-22.82,6.08-15.15,3.52-16.68-.28c-.69-1.72,2.2-3.45,2.2-3.45s-4.43,1.29-5.14-.91c-.8-2.51,2.73-3.89,2.73-3.89s-2.77.56-2.84-1.49c-.14-4.56,17.2-6.81,17.2-6.81s-13.28,6.46-13.7,2.74c-.59-5.16,26.62-10.82,29.45-13.07a52.81,52.81,0,0,0,5.76-5.61Z" style="fill:#f7a9a0"></path><path d="M206.71,257.11a2,2,0,0,1,.62-1.75,5.64,5.64,0,0,1,1.58-1,20.33,20.33,0,0,1,3.73-1.21c2.56-.66,5.19-1.11,7.81-1.79a32.1,32.1,0,0,0-8,.9,15.15,15.15,0,0,0-3.83,1.47,5.24,5.24,0,0,0-1.6,1.37A2.08,2.08,0,0,0,206.71,257.11Z" style="fill:#263238"></path><path d="M183.07,255.65c1.88-.46,3.73-1,5.57-1.52s3.68-1.1,5.52-1.65l5.49-1.72q2.74-.87,5.51-1.7a42.41,42.41,0,0,0-5.69,1c-1.88.43-3.73,1-5.58,1.52s-3.66,1.18-5.47,1.86S184.83,254.84,183.07,255.65Z" style="fill:#263238"></path><path d="M200.76,244.51a37.37,37.37,0,0,0-5.26.72,50.34,50.34,0,0,0-5.14,1.33,45.77,45.77,0,0,0-5,1.86,37.55,37.55,0,0,0-4.72,2.43c1.67-.58,3.31-1.22,5-1.78s3.32-1.13,5-1.64,3.35-1,5-1.52S199.05,245,200.76,244.51Z" style="fill:#263238"></path><path d="M198.08,240.15a35.34,35.34,0,0,0-16.07,5.5c2.69-1,5.31-2,8-2.86S195.36,241,198.08,240.15Z" style="fill:#263238"></path><path d="M213.5,228.53l30.75,15s16.05-63.73,18-86.07-6.6-17.2-12.53-6.71C241.66,165.12,213.5,228.53,213.5,228.53Z" style="fill:#FFC727"></path><path d="M213.5,228.53l30.75,15s16.05-63.73,18-86.07-6.6-17.2-12.53-6.71C241.66,165.12,213.5,228.53,213.5,228.53Z" style="fill:#fff;opacity:0.5"></path><path d="M243.51,235.75c-4.19-1.7-21.07-9.28-24.6-11.16-.25-.13-.22-.32.05-.22,12.67,4.79,20.59,9.33,24.61,11.21C243.67,235.63,243.62,235.79,243.51,235.75Z" style="fill:#263238"></path><path d="M255,199.52c.46-3.3,1-6.56,1.62-9.83s1.23-6.52,1.89-9.77,1.37-6.49,2.14-9.72l1.15-4.84c.43-1.61.81-3.22,1.27-4.83-.22,1.65-.51,3.29-.76,4.93l-.86,4.9c-.58,3.27-1.24,6.52-1.9,9.77s-1.37,6.5-2.14,9.72S255.87,196.31,255,199.52Z" style="fill:#263238"></path><path d="M261.3,169a11.32,11.32,0,0,1,1-2.44,11.62,11.62,0,0,1,1.45-2.2,11.53,11.53,0,0,1-1,2.44A12.67,12.67,0,0,1,261.3,169Z" style="fill:#263238"></path><path d="M265.77,103.39a4,4,0,0,0-1.5.53c-2.09,1.25-2.89,3.73-3.17,6-.28,2.44,0,5.11-1.11,7.37a4.06,4.06,0,0,1-2,2.08,3.77,3.77,0,0,1-3.09-.32c-1-.49-2.12-1.29-3.32-1.06a3.18,3.18,0,0,0-2.12,1.94c-1,2.29.07,4.94,0,7.34a12.81,12.81,0,0,1-2.39,7.14,12.4,12.4,0,0,1-5.62,4.28,12.09,12.09,0,0,1-3.4.78c-1.3.1-2.6-.08-3.9,0a4.5,4.5,0,0,0-3.38,1.29c-.63.75-1.16,4.33,1,8.2.16.28-.36.53-.61.31a16.49,16.49,0,0,1-1.41-1.36,17,17,0,0,1-4.16-15,17.77,17.77,0,0,1,3.78-7.71,28.88,28.88,0,0,0,3-3.79,8.94,8.94,0,0,0,1.12-4c.15-2.72-.36-5.44.25-8.14a15,15,0,0,1,3.4-6.45A17.67,17.67,0,0,1,250.65,97C255.69,97,266.06,103.34,265.77,103.39Z" style="fill:#263238"></path><path d="M265.61,103.42a6.79,6.79,0,0,0-2.83,1.37,5.73,5.73,0,0,0-1.55,2.37,16.09,16.09,0,0,0-.48,6.26c.08,2,.06,4.08-1,5.8A4.76,4.76,0,0,1,257.8,121a3.6,3.6,0,0,1-2.79,0c-1.67-.59-3.6-1.86-5.37-.81s-1.74,3.41-1.77,5.16c-.07,4.24.46,9.76-3.49,12.58a15.65,15.65,0,0,1-7.06,2.37c-1.74.22-3.93.48-4.95,2.1,0,.06.06.11.1,0,1.1-1.7,3.35-1.58,5.13-1.73a16.45,16.45,0,0,0,6.12-1.62,8.11,8.11,0,0,0,4-4.68,19.08,19.08,0,0,0,.81-6.42c0-1.12,0-2.23,0-3.34a7,7,0,0,1,.56-3,2.35,2.35,0,0,1,2.5-1.29,12.37,12.37,0,0,1,2.93,1,4.83,4.83,0,0,0,2.7.35,4.35,4.35,0,0,0,2-1,6.89,6.89,0,0,0,2.14-4.48c.25-2.39-.3-4.8,0-7.18a5.7,5.7,0,0,1,4.41-5.4A.13.13,0,1,0,265.61,103.42Z" style="fill:#263238"></path><path d="M249,95.45a14.43,14.43,0,0,0-12.52,7.21,17.65,17.65,0,0,0-2.42,8c-.19,2.62,0,5.33-.76,7.89-.83,2.82-3.06,4.69-4.95,6.82a15.65,15.65,0,0,0-3.32,5.94,16.86,16.86,0,0,0,1.28,12.85,15.3,15.3,0,0,0,.87,1.44.05.05,0,0,0,.09-.06,16.3,16.3,0,0,1-2-12.74A15.85,15.85,0,0,1,228,127c1.62-2.14,3.85-3.78,5.19-6.14s1.4-4.81,1.46-7.3a23.53,23.53,0,0,1,1.14-8,14.5,14.5,0,0,1,11.1-9.34c5.7-.88,11,2,15.45,5.22.6.42,1.2.86,1.79,1.29.07,0,.16,0,.09-.1C259.79,99.14,254.8,95.64,249,95.45Z" style="fill:#263238"></path><path d="M268.06,103.37c-.31-.82-1.31-1.61-1.89-1.54s-3.76,3.32-3.69,4.45,2.16,1.29,2.16,1.29Z" style="fill:#FFC727"></path><path d="M273.48,152.76s-11.66-9-17.68-8.73l-5,4.62s-1.67.58-2.21-.47c-1.32-2.61-1.68-9,3.72-13.2,5-3.86,15.26-3.26,22.14-1.56,6.6,1.62,10.29,5.44,8.34,9.76S273.48,152.76,273.48,152.76Z" style="fill:#FFC727"></path><path d="M273.48,152.76s-11.66-9-17.68-8.73l-5,4.62s-1.67.58-2.21-.47c-1.32-2.61-1.68-9,3.72-13.2,5-3.86,15.26-3.26,22.14-1.56,6.6,1.62,10.29,5.44,8.34,9.76S273.48,152.76,273.48,152.76Z" style="fill:#fff;opacity:0.5"></path><path d="M274.1,150.73s5.26-5.59,6-8.81-5.71-6.15-9.86-7.28c-6.42-1.74-10.77-1.26-14.3,2.21S274.1,150.73,274.1,150.73Z" style="fill:#FFC727"></path><path d="M274.1,150.73s-9.86-12.59-19.2-13.68l.9,7s7.76,0,17.68,8.73Z" style="fill:#FFC727"></path><path d="M274.1,150.73s-9.86-12.59-19.2-13.68l.9,7s7.76,0,17.68,8.73Z" style="fill:#fff;opacity:0.5"></path><path d="M253.29,144.2a11.83,11.83,0,0,1,5,.59c6.41,1.4,13,6.56,13,6.56l1.9,1.69.21.19.23-.12c3.11-1.75,6.19-5.75,6.76-6.53a41,41,0,0,1-7.11,5.83l.45.07-1.91-1.75c-.66-.56-7.87-5.15-13.41-6.4-.42-.11-.85-.18-1.28-.26s-.86-.1-1.29-.11A7.42,7.42,0,0,0,253.29,144.2Z" style="fill:#263238"></path><path d="M250.76,148.65a27.6,27.6,0,0,0,5-4.62,24.12,24.12,0,0,0-2.66,2.16A25.14,25.14,0,0,0,250.76,148.65Z" style="fill:#263238"></path><path d="M271.7,148.9a50.94,50.94,0,0,0-1.45,8.74c-.18,2.06.13,9.49,2.44,9.38s-1.11-5.13-1.52-9.07.83-6.72,1.12-9Z" style="fill:#FFC727"></path><path d="M277.38,149.11a46.66,46.66,0,0,1,2.27,7.76c.39,1.85.92,8.63-1.18,8.77s.44-4.77.38-8.38-1.49-6-2-8.08Z" style="fill:#FFC727"></path><path d="M264.79,140.75c.12,1.11,5,6.73,9.95,7.13,1.62.13,2.14-6.62,2.14-6.62l.23-.63,3.21-8.87-9.84-8.25-1.43-1.11s-.72,2.48-1.59,5.59c0,.14-.08.28-.12.44s-.11.34-.15.5c-.13.46-.27.93-.39,1.41s-.2.71-.28,1.09l-.29,1.13A62.16,62.16,0,0,0,264.79,140.75Z" style="fill:#f7a9a0"></path><path d="M267.46,128a18.92,18.92,0,0,0,9.65,12.64l3.21-8.87-9.84-8.25-1.43-1.11S268.33,124.88,267.46,128Z" style="fill:#263238"></path><path d="M293.75,116.54c3.45,16.18-5.85,20.08-9.34,20.82-3.17.67-14.05,2.55-19.15-13.19s1.33-22.46,8.49-24.38S290.3,100.35,293.75,116.54Z" style="fill:#f7a9a0"></path><path d="M290.12,115.45a10.73,10.73,0,0,1-1.14-.08,1.85,1.85,0,0,1-1.15-.3.58.58,0,0,1-.1-.71,1.46,1.46,0,0,1,1.38-.54,2.11,2.11,0,0,1,1.43.56A.63.63,0,0,1,290.12,115.45Z" style="fill:#263238"></path><path d="M278.92,116.81a9.74,9.74,0,0,0,1.07-.39,1.81,1.81,0,0,0,1-.6.58.58,0,0,0-.1-.71,1.44,1.44,0,0,0-1.47-.14,2.15,2.15,0,0,0-1.23.94A.63.63,0,0,0,278.92,116.81Z" style="fill:#263238"></path><path d="M281.78,119.62s-.08.07-.07.12c.22,1.1.28,2.41-.66,2.94,0,0,0,.07,0,.06C282.27,122.37,282.16,120.64,281.78,119.62Z" style="fill:#263238"></path><path d="M280.59,118.63c-1.81.16-1.36,3.77.32,3.62S282.11,118.49,280.59,118.63Z" style="fill:#263238"></path><path d="M279.91,118.91c-.29.24-.55.64-.93.72s-.81-.23-1.15-.56c0,0-.06,0-.05.05.07.69.43,1.37,1.18,1.38s1.1-.67,1.19-1.38C280.16,119,280,118.81,279.91,118.91Z" style="fill:#263238"></path><path d="M288.11,118.11s.09,0,.1.09c.1,1.12.41,2.39,1.47,2.63,0,0,0,.06,0,.06C288.42,120.88,288,119.19,288.11,118.11Z" style="fill:#263238"></path><path d="M289,116.81c1.78-.36,2.37,3.23.72,3.57S287.47,117.12,289,116.81Z" style="fill:#263238"></path><path d="M289.75,116.93c.31.14.65.44,1,.41s.63-.48.81-.89c0,0,.06,0,.07,0,.13.68,0,1.43-.62,1.67s-1.12-.29-1.39-1C289.56,117.08,289.62,116.87,289.75,116.93Z" style="fill:#263238"></path><path d="M282.91,128.91c.29.25.59.59,1,.59a2.93,2.93,0,0,0,1.18-.38s.08,0,.06,0a1.52,1.52,0,0,1-1.38.73,1.19,1.19,0,0,1-1-.93C282.79,128.91,282.87,128.88,282.91,128.91Z" style="fill:#263238"></path><path d="M287.6,124.2s.46,1.64.57,2.42c0,.08-.17.14-.44.19h0a3.8,3.8,0,0,1-3.82-.9.08.08,0,0,1,.1-.13,5.67,5.67,0,0,0,3.55.51c0-.22-.88-2.77-.76-2.8a6.68,6.68,0,0,1,1.84.16c-.85-3.44-2.25-6.71-3.06-10.14,0-.12.15-.18.2-.08a57.21,57.21,0,0,1,3.76,10.78C289.64,124.66,287.94,124.29,287.6,124.2Z" style="fill:#263238"></path><path d="M287,126.87a4.05,4.05,0,0,1-1.56,1.29,1.86,1.86,0,0,1-1.1.1c-.79-.18-.83-.91-.71-1.54a4.76,4.76,0,0,1,.33-1A5.19,5.19,0,0,0,287,126.87Z" style="fill:#263238"></path><path d="M285.44,128.16a1.86,1.86,0,0,1-1.1.1c-.79-.18-.83-.91-.71-1.54A1.89,1.89,0,0,1,285.44,128.16Z" style="fill:#ff9abb"></path><path d="M281.3,103.12a7.59,7.59,0,0,1,0,4.4c-1.64,3.85-6.21,3-7.7,4.6s-.76,4.34-2,5.8c-1.74,2-3,.67-3.28,2s-.94,5.52-2.57,6.12S255.34,99.24,277,99.24c0,0,3-1.51,7.63.81,6.58,3.29,8,11.82,8,11.82a5.54,5.54,0,0,1-2.09-.86c-1.08-.89-1.63-1.56-2.42-2.13-1.24-.89-1.95-.2-3.24-1.06C283,106.49,281.3,103.12,281.3,103.12Z" style="fill:#263238"></path><path d="M281.07,102.2a15.29,15.29,0,0,1,.77,3.31,6.18,6.18,0,0,1-.33,3.26,4.49,4.49,0,0,1-2.4,2c-1,.43-2.14.58-3.23,1.07a3.35,3.35,0,0,0-1.41,1.16,4.48,4.48,0,0,0-.56,1.7,6.18,6.18,0,0,1-1.08,3.06,3.74,3.74,0,0,1-2.85,1.35c-1.09,0-2.31-.22-3.35.31,1.08-.44,2.21-.09,3.35,0a4,4,0,0,0,3.16-1.34,6.07,6.07,0,0,0,1.24-3.24,4.22,4.22,0,0,1,.52-1.51,2.83,2.83,0,0,1,1.2-.95c1-.46,2.12-.64,3.2-1.1a5.82,5.82,0,0,0,1.5-.92,3.45,3.45,0,0,0,1.09-1.41,6.52,6.52,0,0,0,.21-3.47A15.36,15.36,0,0,0,281.07,102.2Z" style="fill:#263238"></path><path d="M281.52,103.18a12,12,0,0,0,1.18,3,5.55,5.55,0,0,0,2.27,2.31,7.45,7.45,0,0,0,1.52.53,2.55,2.55,0,0,1,1.2.74,8.6,8.6,0,0,0,1,1.25,3.57,3.57,0,0,0,1.41.75,3.91,3.91,0,0,1-1.22-.94,8.45,8.45,0,0,1-.85-1.31,2.7,2.7,0,0,0-1.37-1,8.65,8.65,0,0,1-1.44-.52,6.08,6.08,0,0,1-2.15-2.07A23.41,23.41,0,0,1,281.52,103.18Z" style="fill:#263238"></path><path d="M268.26,123.39s-4.22-4.68-6.38-3.12,1.45,8.67,4.3,9.34a2.8,2.8,0,0,0,3.54-2Z" style="fill:#f7a9a0"></path><path d="M263,122.28s0,.07,0,.08c2,.53,3.24,2.18,4.17,3.94a1.54,1.54,0,0,0-2.34-.14c-.05,0,0,.12.06.1a1.71,1.71,0,0,1,1.95.36,7.81,7.81,0,0,1,1.09,1.41c.11.16.41,0,.32-.16l0,0C267.94,125.38,265.62,122.2,263,122.28Z" style="fill:#263238"></path></g><g id="freepik--speech-bubble--inject-135"><polygon points="411.88 52.44 411.88 91.6 344.42 91.6 338.35 102.74 332.28 91.6 322.91 91.6 322.91 52.44 411.88 52.44" style="fill:#fff"></polygon><path d="M411.88,52.44l.26,39.16v.25S344.5,92,344.42,92l.36-.21-6,11.16-.4.74L338,103l-6.11-11.12.44.25h-9.85V91.6l.11-39.16v-.38h.37c22.17,0,66.81.22,89,.38Zm0,0c-22.19.16-66.8.33-89,.37l.37-.37.11,39.16-.48-.48,9.37,0h.29l.15.26,6,11.16H338l6.11-11.12.11-.22h.25l67.46.16-.26.26.26-39.16Z" style="fill:#263238"></path><path d="M414.31,52.44v.06l-.05.06Z" style="fill:#fff"></path><path d="M404.31,52.44v.06l-.05.06Z" style="fill:#FFC727"></path><path d="M345.93,67.75c-.39-3.84-3-7.67-7.69-7.67s-7.28,3.83-7.67,7.67C330,73.67,334,79.05,338.24,84,342.52,79.05,346.52,73.67,345.93,67.75ZM338.24,72a4.2,4.2,0,1,1,4.22-4.2A4.18,4.18,0,0,1,338.24,72Z" style="fill:#FFC727"></path><rect x="354.18" y="72.46" width="40.92" height="1.23" style="fill:#ebebeb"></rect><rect x="354.18" y="75.89" width="34.49" height="1.23" style="fill:#ebebeb"></rect><rect x="354.18" y="79.31" width="38.9" height="1.23" style="fill:#ebebeb"></rect><rect x="354.18" y="82.73" width="23.23" height="1.23" style="fill:#ebebeb"></rect><polygon points="357.98 60.09 359.38 62.17 361.79 62.85 360.25 64.82 360.34 67.33 357.98 66.47 355.63 67.33 355.72 64.82 354.18 62.85 356.59 62.17 357.98 60.09" style="fill:#FFC727"></polygon><polygon points="368.75 60.09 370.15 62.17 372.56 62.85 371.01 64.82 371.11 67.33 368.75 66.47 366.4 67.33 366.49 64.82 364.95 62.85 367.36 62.17 368.75 60.09" style="fill:#FFC727"></polygon><polygon points="379.52 60.09 380.92 62.17 383.33 62.85 381.78 64.82 381.88 67.33 379.52 66.47 377.17 67.33 377.26 64.82 375.72 62.85 378.13 62.17 379.52 60.09" style="fill:#FFC727"></polygon><polygon points="390.29 60.09 391.69 62.17 394.1 62.85 392.55 64.82 392.65 67.33 390.29 66.47 387.94 67.33 388.03 64.82 386.49 62.85 388.9 62.17 390.29 60.09" style="fill:#FFC727"></polygon><polygon points="401.06 66.47 401.06 60.09 399.67 62.17 397.25 62.85 398.8 64.82 398.71 67.33 401.06 66.47" style="fill:#FFC727"></polygon><path d="M401.06,60.08l1.48,2c.5,0,1.66.42,2.38.58l.23.06L405,63l-1.51,2,.05-.13.11,2.5v.34l-2.68-1h.17l-2.69,1,0-.34.11-2.5.05.14-1.51-2-.16-.2.24-.06c.72-.16,1.88-.55,2.38-.58l1.47-2Zm0,0c-.5.73-.88,1.53-1.37,2.18-.79.27-1.59.5-2.39.75l.08-.26L399,64.69c.06.06,0,.07,0,.14l-.08,2.51-.31-.23,2.35-.88.08,0,.09,0,2.35.88-.31.23-.08-2.51c0-.08,0-.08.05-.14l1.58-1.94.09.26c-.8-.25-1.6-.48-2.4-.75-.48-.65-.87-1.45-1.37-2.18Z" style="fill:#FFC727"></path></g></svg>
